/* XPM */
static char *result[] = {
/* columns rows colors chars-per-pixel */
"50 50 203 2 ",
"   c #010003",
".  c #060807",
"X  c #0D0A04",
"o  c #01020A",
"O  c #0A060A",
"+  c #060A0C",
"@  c #0B0B0B",
"#  c #150D01",
"$  c #130C0A",
"%  c #0E110E",
"&  c #1B1505",
"*  c #14120B",
"=  c #1A1709",
"-  c #1C140A",
";  c #0C0C13",
":  c #150F11",
">  c #0E1211",
",  c #151514",
"<  c #1A1311",
"1  c #1C1C12",
"2  c #181818",
"3  c #25180B",
"4  c #2C1C0B",
"5  c #321E00",
"6  c #251C11",
"7  c #2A240A",
"8  c #35230C",
"9  c #3B250B",
"0  c #39280B",
"q  c #36340E",
"w  c #242412",
"e  c #2C2315",
"r  c #2A2B15",
"t  c #2A2B16",
"y  c #372A17",
"u  c #2F3119",
"i  c #383818",
"p  c #3E3B18",
"a  c #211E22",
"s  c #2A2629",
"d  c #322D29",
"f  c #35302A",
"g  c #312C31",
"h  c #3B3637",
"j  c #422700",
"k  c #442C0C",
"l  c #4B320A",
"z  c #583707",
"x  c #52340C",
"c  c #54390C",
"v  c #5A3A0C",
"b  c #46361D",
"n  c #513A16",
"m  c #653C06",
"M  c #443E39",
"N  c #444111",
"B  c #484517",
"V  c #4D4A1A",
"C  c #544A16",
"Z  c #5A5512",
"A  c #54521C",
"S  c #59551E",
"D  c #6B450B",
"F  c #73490D",
"G  c #7D4E0D",
"H  c #7B510C",
"J  c #674412",
"K  c #704911",
"L  c #784E11",
"P  c #605B15",
"I  c #625D1B",
"U  c #795212",
"Y  c #706B0F",
"T  c #666214",
"R  c #66611E",
"E  c #6D6918",
"W  c #7B771D",
"Q  c #5E5B21",
"!  c #49443E",
"~  c #635F23",
"^  c #666121",
"/  c #6D6722",
"(  c #726C23",
")  c #7A7424",
"_  c #7B7524",
"`  c #564E48",
"'  c #5D554A",
"]  c #61594F",
"[  c #635B52",
"{  c #6B6256",
"}  c #6D655B",
"|  c #756B5D",
" . c #786E60",
".. c #7F7465",
"X. c #87560D",
"o. c #8C5B0C",
"O. c #945D0E",
"+. c #865712",
"@. c #935E10",
"#. c #9C630E",
"$. c #9F6B0A",
"%. c #8D6212",
"&. c #8C631B",
"*. c #956614",
"=. c #837D1A",
"-. c #AC6C0E",
";. c #B4710D",
":. c #BA740C",
">. c #A26914",
",. c #AC6E14",
"<. c #A97414",
"1. c #B87715",
"2. c #857E24",
"3. c #C37A0D",
"4. c #CB7E0C",
"5. c #D07F07",
"6. c #C17A13",
"7. c #867A6B",
"8. c #887D6E",
"9. c #8A7E70",
"0. c #88811F",
"q. c #8B8523",
"w. c #8C8627",
"e. c #958E26",
"r. c #938C29",
"t. c #9D9528",
"y. c #A49B2C",
"u. c #A89F2F",
"i. c #ACA32D",
"p. c #B4AA2E",
"a. c #BCB22F",
"s. c #ADA431",
"d. c #B3A932",
"f. c #B4AB33",
"g. c #BEB433",
"h. c #D88508",
"j. c #DA860A",
"k. c #CA8614",
"l. c #E38600",
"z. c #E58901",
"x. c #EC8D01",
"c. c #E38C08",
"v. c #F18F00",
"b. c #EF9207",
"n. c #EC930C",
"m. c #F49201",
"M. c #FB9602",
"N. c #FF9B01",
"B. c #FF9E0D",
"V. c #FFA306",
"C. c #C0B52F",
"Z. c #C5BB32",
"A. c #C3B834",
"S. c #C9BE31",
"D. c #CCC232",
"F. c #D1C633",
"G. c #D5C934",
"H. c #D9CE33",
"J. c #DCD134",
"K. c #E9DD2D",
"L. c #E2D736",
"P. c #E6DA33",
"I. c #EADD33",
"U. c #F5EA2F",
"Y. c #F6EA2F",
"T. c #FEF22F",
"R. c #EEE234",
"E. c #F1E531",
"W. c #F6EA31",
"Q. c #F9ED32",
"!. c #F3E739",
"~. c #FAED3A",
"^. c #FEF333",
"/. c #FFFB35",
"(. c #FFF439",
"). c #FFFD39",
"_. c #8D8372",
"`. c #968977",
"'. c #968A77",
"]. c #AB9C86",
"[. c #AFA08B",
"{. c #B7A78F",
"}. c #BFAF95",
"|. c #C5B59B",
" X c #CBBA9E",
".X c #CCBAA1",
"XX c #D0BEA5",
"oX c #D6C4A7",
"OX c #D3C1A8",
"+X c #DCC9AD",
"@X c #E1CEB1",
"#X c #E6D2B5",
"$X c #EAD6B7",
"%X c #EBD7B9",
"&X c #EEDABD",
"*X c #F1DCBE",
"=X c #F5E0BF",
"-X c #F3DEC0",
";X c #F6E1C2",
":X c #FAE5C5",
">X c #FDE7C8",
",X c #FFEBCA",
"<X c #FFF1CF",
/* pixels */
"*X&X&X&X*X*X*X*X*X*X*X*X&X*X&X*X*X*X*X*X&X&X&X&X=X-X-X;X-X&X-X&X&X*X*X*X*X*X-X*X*X%X*X*X-X&X*X&X&X&X",
"-X&X&X*X-X*X*X&X&X*X*X*X&X*X*X*X*X*X*X*X;X&X*X&X&X;X-X-X&X-X&X&X*X*X*X&X*X*X*X-X-X*X-X-X-X&X*X-X-X&X",
"*X*X&X&X*X-X&X*X&X*X*X*X%X*X*X*X*X*X*X*X&X&X&X&X&X-X-X&X-X-X;X&X&X*X*X&X*X*X*X*X*X*X*X*X&X&X&X*X*X&X",
"&X&X&X&X&X&X*X*X*X*X*X*X%X*X*X&X*X%X*X*X&X&X%X%X&X&X%X&X&X*X&X&X&X*X-X&X*X*X&X*X*X*X*X*X-X*X&X*X*X*X",
"&X&X&X&X&X&X-X&X&X*X*X*X&X&X&X&X*X&X&X%X*X*X=X;X;X;X-X;X;X&X&X&X&X&X*X*X*X&X*X*X*X*X&X*X&X*X*X*X*X-X",
"*X&X&X&X-X-X*X*X*X*X*X*X*X&X&X&X&X%X;X>X:X$X+XOXXXXXOX+X%X:X,X;X*X&X&X*X&X*X*X*X*X&X&X&X&X*X*X*X*X*X",
"*X%X*X*X*X-X-X*X*X*X*X*X&X*X*X&X*X,X+X8.h @ @ $ * = * + ; f ..XX,X>X&X&X&X*X*X*X-X*X*X&X&X&X&X*X*X-X",
"*X*X*X&X*X-X-X*X*X&X*X*X*X$X*X,X X` o X C q.A.G.K.K.H.A.e.Z * o M }.,X*X%X*X*X*X*X-X*X*X&X&X*X*X-X-X",
"&X*X-X&X*X*X*X*X*X*X*X*X&X;X*X|   7 t.R././.^.^.^.Q.^.^./.(.!.i.q   ] $X:X%X*X&X*X&X*X&X&X&X&X-X-X;X",
"-X*X-X&X*X*X&X&X*X*X&X%X,XoXs   r.~.).W.W.T././.(.(.)./.^.U.U./.(.u.X , |.,X&X*X*X&X&X*X&X&X&X&X*X*X",
"-X-X-X-X-X*X&X*X-X&X$X:X XO 7 L./.W.Q./.Q.S.r.E A A E w.S.Q./.U.U./.!.N   ].,X%X*X*X*X-X-X&X&X&X&X*X",
"*X-X-X*X&X*X&X&X*X&X:X Xo B (.^.E./.I.q.1 o @ 3 k q 8 - X w q.R./.E.Q./.I   {.,X%X*X&X*X&X&X*X*X*X&X",
"*X*X*X&X&X&X&X&X&X-X@X; N (.Q.W.(.y.%   c *.$.&.D z z l b y o 6 i.(.U.U.).R o .X-X&X&X*X&X-X-X*X*X*X",
"&X&X*X*X&X&X&X&X%X>X! = ~.Q.Q.Q.R   l <.%.8 + @ 1 6 w e 6 * %     / ^.Q.W.).q a *X-X*X*X-X*X&X*X*X*X",
"*X*X*X&X*X*X*X&X,X`.  S.^.U.^.A   U <.8 o k ,.J   $ O n c.;.D -     S Q.U.^.L.  | ,X&X*X&X&X-X-X*X*X",
"-X*X*X&X*X&X&X-X*X2 I ).E./.)   %.o.  8 3.x.V.x u Z.Q * b.M.m.j.L @   ) /.E./.e.o +X-X&X&X&X&X&X&X*X",
"-X&X&X-X-X&X%X,X'.  J.^.^.C.  L %.  K b.v.x.+.  / ).y.o 8 O.x.x.M.;.$   a.(.U.~.& { ,X%X&X&X&X&X-X-X",
"-X%X-X-X-X&X&X;Xs Z ).U.(.u 7 *.  U M.l.c.l o _ I.^.W.d.V o 8 3.z.v.3.O r W.U./.q.; $X*X%X&X&X&X&X&X",
"&X&X-X-X-X&X:X.X  A.^.^.a.  @.$ c M.h.m.X.o D./.^.K.E.)./.G.@ e z.l.v.;.  t./.Q.J.  ].,X&X-X&X-X-X%X",
"-X-X-X-X-X%X,X9.= W.Q.).A 4 C $ c.l.l.x.$ ) /.D.t + * A H.p.  #.v.z.z.M.k b /.U./.r [ ,X&X-X-X*X-X&X",
"-X-X&X&X&X&X,X' N (.Q.Q.1 n @ X.m.l.v.:.O F.^.t 9 ,.X.3 o   K m.z.z.l.v.@.@ P.Q.).T g :X-X-X-X*X-X-X",
"&X-X&X-X&X&X:Xh Y ).Q.H.* b = c.l.l.x.-.X J.Q.; @.N.v.m.o.J z.l.z.z.z.x.5.  A.^./.e.2 %X-X*X-X&X&X-X",
"-X-X-X&X&X=X=Xg 0./.T.f.$ < v m.l.l.x.h.o i./.(   o.c.v.m.m.l.z.z.z.z.z.l.$ e././.i.+ @X-X*X-X&X&X-X",
"-X;X&X&X&X=X=Xg q././.d.  + O.v.l.l.l.m.9 p ).^.) o $ D 4.m.l.z.z.z.z.z.c.< w./.T.f.@ @X-X&X*X*X-X&X",
"&X;X&X-X&X-X;Xg q./.^.d.    1.x.z.z.l.v.3.o R (./.J._ 1 o U x.z.z.z.z.z.z.< r./.(.s.+ #X;X%X&X&X&X%X",
"&X&X-X-X&X&X=Xg =./.^.S.  . 3.x.z.z.z.z.x.-.o u a./.).Q.w.o K m.l.z.z.z.l.O y././.u.O #X:X-X-X-X&X&X",
"&X-X&X&X&X-X;Xs T ).Q.P.X   3.x.z.z.z.z.l.v.4.k o t w.R./.t.  ;.v.l.z.x.:.. S.Q./.0.o #X;X%X-X&X-X-X",
"-X&X&X&X&X-X;Xd q ^.Q.Q.i   ,.x.l.z.z.z.z.c.l.M.;.z o e L.).i x m.l.z.v.G 2 W.W.(.P   #X;X&X%X-X-X&X",
"*X&X*X&X&X*X;XM   R.Q./.2.  X.m.l.z.l.v.j.4 $ 3.N.N.n.$ R ).W 6 n.z.l.x.3 I /.W.~.w @ #X-X-X-X-X-X&X",
"&X&X-X=X-X&X>X'   i./.Q.H.o l x.l.l.z.4.= r B o x O.@.  ) ).W 6 n.l.v.-.o F.^.^.S.  d &X%X-X-X%X&X&X",
"&X&X*X*X*X*X,X..  V (.U./.( o h.x.z.z.- * ~./.t.u 2 > ~ W.(.w v m.z.x.- S /.E./.E   ' :X%X&X-X-X&X&X",
"&X*X*X*X*X&X>X[.    a.^.Y.!.w 9 b.z.z.G o / E././.E.W./.).) o 3.z.m.v @ L.^.^.J.@   _.>X%X&X%X&X&X;X",
"&X&X*X&X&X%X=X#X1   p (.E.^.H.+ k m.z.v.#.@ % ( J.^.E.d.p o O.v.m.K   a./.E./.S   @ oX;X%X&X%X&X&X-X",
"&X*X*X&X&X&X&X,X{     w./.E./.g.o 8 j.m.v.h.K   ^ ).y.o 9 :.N.c.c o y./.E./.i.    ! ,X*X&X&X*X&X&X&X",
"-X-X&X*X-X;X&X:X.X@ e . C./.E./.G.w o X.j.M.V.v @ ^ w 3 V.b.O.$ % C./.E.^.H.@ e   [.>X*X&X;X*X*X-X-X",
"-X&X&X-X&X&X&X%X,X] & b @ F./.E.^.Q._ + ; z O.U 0 9 3 b m $ o R I./.E.^.P.1 7 4 M :X*X*X*X&X&X;X-X-X",
"*X&X&X&X&X&X*X&X;X@X< 7   + S./.W.W./.P.q.i % @ $ * * * t ) H./.Q.E./.J.1   3 X .X:X&X-X*X&X;X;X;X&X",
"&X-X-X&X*X&X*X*X&X,X].  # x   w./.^.E.Q./.(.R.D.d.s.S.K.^./.T.E.^./.y.o k i   _.,X&X&X-X-X&X*X&X&X&X",
"&X-X-X-X;X;X&X*X-X&X>X7.  >.@.  p C.(./.^.U.Q.Q.^.T.^.Q.Q.W././.F.A   F 1.  ] >X&X&X&X&X&X&X&X;X-X&X",
"&X-X-X&X&X*X&X&X&X&X*X,X}   >.&.    p y.I.^././././././.(.R.i.V o   F 6.  ! =X*X&X&X&X&X&X&X-X&X-X&X",
"*X*X-X-X*X*X-X*X&X&X&X-X>X7.  - e *.7   @ u T q.r.r.0.E i %   3 %.y # . { :X;X&X&X&X*X*X&X*X*X&X&X&X",
"*X-X*X*X*X&X*X*X&X&X-X&X&X>X{.,   H >.% U m 3   @ :   $ v o.X &.o.  @ `.,X-X&X&X&X&X&X&X*X*X&X&X&X*X",
"&X*X&X*X*X*X&X*X-X-X&X&X&X&X:X#X| ;     >.N.k.$ <.k.6 &.B.:.    + { @X,X%X-X;X&X&X&X&X&X&X*X*X&X&X*X",
"&X*X&X*X*X*X*X&X&X&X*X&X&X*X&X-X,X+X7.f . X -   5 j   X #   s | OX,X-X%X-X&X&X&X&X&X&X&X*X&X-X*X-X&X",
"&X*X&X&X&X&X&X&X*X*X&X&X%X&X-X&X%X;X>X-X.X`.}  .} } | | _.|.&X,X:X&X%X&X&X&X&X&X*X*X*X&X*X&X&X&X&X-X",
"&X*X*X*X*X*X&X-X*X&X%X&X-X&X&X&X&X&X%X-X-X,X<X,X,X<X,X<X,X;X&X#X%X&X&X&X-X&X&X*X*X&X&X-X-X&X&X-X-X&X",
"*X*X-X-X-X*X-X-X*X&X&X-X-X-X&X&X&X&X&X&X&X&X%X%X%X%X%X&X&X%X&X&X&X*X&X*X&X-X;X&X&X&X&X*X-X*X-X-X-X-X",
"*X*X*X-X-X-X-X*X&X*X-X&X-X-X-X&X*X&X-X-X-X-X-X-X%X-X-X-X&X&X&X*X;X&X=X&X-X&X&X&X&X*X-X-X&X&X-X*X&X-X",
"*X*X&X*X*X*X*X*X*X&X&X*X&X&X&X&X*X*X*X*X&X&X*X*X-X*X*X*X*X*X&X&X=X&X*X&X%X&X&X&X&X&X-X&X&X-X&X*X-X-X",
";X*X*X*X&X*X*X-X*X*X&X%X&X&X&X&X&X*X-X*X*X*X*X*X*X*X*X*X&X*X*X*X*X*X*X&X&X&X-X-X-X%X&X-X&X-X-X-X*X&X"
};
