/* XPM */
static char *result[] = {
/* columns rows colors chars-per-pixel */
"50 50 67 1 ",
"  c #005E01",
". c #046107",
"X c #056208",
"o c #007108",
"O c #007D0B",
"+ c #146913",
"@ c #0C7611",
"# c #0C7A12",
"$ c #177317",
"% c #117815",
"& c #217F21",
"* c #00830E",
"= c #008E0E",
"- c #00940F",
"; c #009B0E",
": c #048511",
"> c #0C8213",
", c #008F10",
"< c #0D8D15",
"1 c #009310",
"2 c #0C9316",
"3 c #009A10",
"4 c #00A207",
"5 c #00A50D",
"6 c #00BA0F",
"7 c #00A612",
"8 c #00AB13",
"9 c #00B213",
"0 c #00BA14",
"q c #1F8920",
"w c #248524",
"e c #238A24",
"r c #2C852A",
"t c #35832F",
"y c #289128",
"u c #00C70F",
"i c #00C314",
"p c #00CA16",
"a c #01CD18",
"s c #00D417",
"d c #00DA16",
"f c #00D718",
"g c #00D918",
"h c #76995E",
"j c #789B60",
"k c #81A167",
"l c #8DA770",
"z c #ADB789",
"x c #AFB88B",
"c c #B9BF93",
"v c #C6C59D",
"b c #C8C69F",
"n c #CAC7A0",
"m c #CAC8A0",
"M c #D0C9A4",
"N c #E2CEB2",
"B c #E3D1B3",
"V c #E9D4B7",
"C c #EAD5B9",
"Z c #EEDABD",
"A c #F1DCBE",
"S c #F3DEC0",
"D c #F8DFC3",
"F c #F5E0C2",
"G c #FAE1C5",
"H c #FFE6CC",
"J c #FFE8CF",
/* pixels */
"AZZAAAZASAZZAAZAAAAAAZAAAAAFSAAZZAAAAAFAZZZAASAZZZ",
"SZZAAAAZZAAAZAAAAAASAZZZASAAASAZZAAAAAAFAASAAZAAAZ",
"AAZZSSZAAAAZZAZAZAZAAZZZAAAAAAAZZAAAAAAAAAAAAZZAAZ",
"ZZZZZZAAZAFSZAASAAAFFAZAAFAFSSFSAFFAAFAAAAAAAAAZAA",
"ZZZZZZSZACVBBBBBBBBBBBNNNBNBBNNNNNNNVNNBAAZZAAAAAS",
"AZZZASAZHk.@@@@@##@@######>%22<2<#2<#>>#cGZZZAAASA",
"ACZAASACJh *O=-;557788889996sdddsidsiip4zGAZZZZAAA",
"AASZZSSZJh :O-13777888999990sdddaissipa7xGAAZZAASF",
"AASAZAAZJj.=*,17777888899990sfsgaifsiia5zGZZCAZASS",
"AAAAAAZCJh *O=-3777888899990sddgaifsiia5zGZZAZZZAS",
"AASSSAZZJh :*,13778788899990sgfgaifsiia7zGZAAACAZA",
"ADAAZZZZJh :O,-7777889899990sgsgaifsppa7xGZAAAAAAZ",
"AAACAZZCHj **=-3778888999999ffsgaifsipa5xGZAAAAAAA",
"AAAAZAZCHj.**=17778788899990sfdgs0fsiis5xGAAAAAAZA",
"AAAAZAZZHj.:O=13777888899990sgggsifsiif5xGAAAZAAAA",
"AAAZAAACJh *O--3777788899999ssfga0fsiiu4xGCAAAAZAS",
"ZZZZSZZZHl$&&oOOOOOOOOOO*O*-;;;=---=*eyrvGZZZZZZSS",
"SZSSZZZSSSCSv OO:,13777788issps6ps06wNCCFAAZZAZAZZ",
"ZZSSSSZCSSSDn O:*-38889999pdgdsisspieCAAAAAAFAAAZZ",
"SSSSSZSSSCSDn OO*-18888899pdsdsisspueCAAAAAAAAAAAA",
"SSSZSCSZSSCDn.O**338888999pgsgsiadpieCFZAAAAASAASA",
"ZZZZSZZSCCSDn.O**-18788999pgdgfisspieVZZAAAAASAZZS",
"SZSAZSSSCSSSb.OO*-37888898pdfgfiadpueVZZAAZZAAAAZA",
"SSSZSCSCSSCDn.O**338788999pgfffiafpieVSZAAAZZAAASA",
"ZSSAZAAZZZZFb.O**117888999pdsgsiaspueVSAZZAZAAAAZZ",
"ZSSZZAAZZAAGb.O**-38888899pgdffisdpiwVZZAZZSDSZZZZ",
"AAZZAAASAAZDm.O**;38888998pdfffiaspueCFZAAZAZZAAAS",
"AAAZAADAZZZDb.O**118788999pdfffiafpieCFAASAZZAZAAA",
"AAAAZAAAZZZSb.O**-38788899pgdgsiaspuwCSZAAAAZSAAAZ",
"ZZAASAZAAZZDb.O**318888999pgfffisspieVAZZAAZZASZAZ",
"ZZZSAFAAASAGn.O**-38888998pdfgfiadpueCSAAAAZZZZAZA",
"ZASAAAAAZAAFb.O**118888899pgfffiafpieCSASAZCZZZAZS",
"CZAZZZZAASZFbXO**138788998pgsggisgpieCDZAZZZZZCZZS",
"AAAZAAAAAACDbXO**;38888999pgfgsiafpieCAZZSFAZZAZZZ",
"SAAAAAAAAAZGb.O**118788999pgfggisfpieVAAAASFZFASSZ",
"SAZAAAZZAAAGmXO**137888899pdfgf0aspueVAZASFAZZZFSS",
"AZZZZZAZZSZGb.O**138888999pdsgfiadpieVAAZFZSSZSFSA",
"AASZAZAASSZDb.O**;38888899pgsgfisspieVAAZZZFSZAAAZ",
"ZSSASAZASZZDn.O**137888999pgdgfiaspueVAAZZZZAZAASZ",
"ZASAZSSZZZSGn O**--8588998pdsgdisspieVAAAZZZZZZSAZ",
"ZAASZAAAZZZGn.O**;;8788999pgfffisspieCAZZAAAASZZZA",
"ASAAAAAAZZZDb.O**--8788899pgfffiaspueCFAZZZZZAZZZA",
"AAZAAAZASSZDb.OO*--8888989pgffgiadpieCAAZZZZZAAAAA",
"ZAZASAAZZZZDv.O**;;8888969sddddisdsuqCAZZZZZAZSZZS",
"ZAZZZAZAAAZSm+@####>>>>>>><2222<222*tCAZZSZZAZZAZZ",
"ZAZAAAZAZZZZSVBNBBBBNBBNNVNNNNMNNNNNVSAAZZZFSZZSSZ",
"AASSAAASAZZZSFSZAADFAFFAFAGFFSAAAFFAFZFZZAZZFZSAAF",
"AAASSSSSZASZSFZZAZZAAAAAZZAAZZAZAAAAZZZZZAFAZAAAAA",
"AAZAAAAAAAZZZZCZAAAAAZAAFAAAAZAZFAAZCZZZAAZAAAZASS",
"FAAAZAAAAAZZZZZZAASAZAAAAAAAAZZAAAAZZAAZZZAAAASAAZ"
};
