/* XPM */
static char *result[] = {
/* columns rows colors chars-per-pixel */
"50 50 191 2 ",
"   c #020201",
".  c #1B1A0E",
"X  c #242012",
"o  c #2F3B33",
"O  c #7E1E20",
"+  c #703130",
"@  c #783838",
"#  c #594D34",
"$  c #5C533A",
"%  c #65583C",
"&  c #6A5B3C",
"*  c #71603D",
"=  c #343E41",
"-  c #435448",
";  c #5B5645",
":  c #51514B",
">  c #4C5755",
",  c #655C42",
"<  c #6A5D41",
"1  c #6C504F",
"2  c #7C514D",
"3  c #58614B",
"4  c #526456",
"5  c #5C635A",
"6  c #6E6243",
"7  c #726446",
"8  c #746749",
"9  c #7B6C4A",
"0  c #666756",
"q  c #7A6857",
"w  c #6A755B",
"e  c #4F5C65",
"r  c #5A6B64",
"t  c #5F726C",
"y  c #5B6C76",
"u  c #5E7477",
"i  c #6A6D62",
"p  c #776E68",
"a  c #69746B",
"s  c #657C6D",
"d  c #6C7D6D",
"f  c #787A69",
"g  c #667876",
"h  c #737671",
"j  c #942827",
"k  c #913B39",
"l  c #A72F2F",
"z  c #815252",
"x  c #A34740",
"c  c #82724D",
"v  c #837451",
"b  c #877853",
"n  c #887C65",
"m  c #A27C6B",
"M  c #71876F",
"N  c #6D8272",
"B  c #6E897A",
"V  c #7B8274",
"C  c #748878",
"Z  c #758A7C",
"A  c #92856D",
"S  c #868170",
"D  c #828D7A",
"F  c #8C8B7A",
"G  c #8B9379",
"H  c #949272",
"J  c #A29276",
"K  c #B1907D",
"L  c #95A57C",
"P  c #A5A16C",
"I  c #B1A56A",
"U  c #A7A97D",
"Y  c #CAC27E",
"T  c #5E7180",
"R  c #657984",
"E  c #677988",
"W  c #767D81",
"Q  c #687E91",
"!  c #6C8389",
"~  c #748785",
"^  c #748D81",
"/  c #7B9182",
"(  c #7E988C",
")  c #6D8392",
"_  c #738A9C",
"`  c #7B9598",
"'  c #768EA1",
"]  c #7690A7",
"[  c #7B93A4",
"{  c #7D96AA",
"}  c #8C8C86",
"|  c #8C9583",
" . c #899D87",
".. c #939684",
"X. c #969984",
"o. c #9C9689",
"O. c #969888",
"+. c #9D9C8A",
"@. c #8E9598",
"#. c #949590",
"$. c #A29A85",
"%. c #A79B87",
"&. c #A39E8A",
"*. c #A39D92",
"=. c #8FA886",
"-. c #83A18C",
";. c #8BA18A",
":. c #92A482",
">. c #93A38D",
",. c #87A590",
"<. c #8CAB94",
"1. c #89AC95",
"2. c #93AE93",
"3. c #99AA95",
"4. c #8FB49C",
"5. c #92B59E",
"6. c #9AB79B",
"7. c #A3A38D",
"8. c #ABA38D",
"9. c #B3A38C",
"0. c #BCAC88",
"q. c #B4B984",
"w. c #ADA690",
"e. c #ABAB94",
"r. c #B5AD95",
"t. c #BBAD94",
"y. c #A4B790",
"u. c #BCB19A",
"i. c #829DB3",
"p. c #95BAA1",
"a. c #99BEA5",
"s. c #87A3BA",
"d. c #8AA5BA",
"f. c #8DA8BE",
"g. c #93A9B9",
"h. c #C0A38D",
"j. c #C0AE95",
"k. c #C4B49C",
"l. c #C9B89E",
"z. c #C4B7A3",
"x. c #CCBCA3",
"c. c #D3BDA4",
"v. c #97C1A9",
"b. c #9DC4A8",
"n. c #9EC5AA",
"m. c #A5C3A6",
"M. c #A4CAAE",
"N. c #A4CDB2",
"B. c #A5D1B6",
"V. c #AAD2B6",
"C. c #A6D3B9",
"Z. c #ACD5B9",
"A. c #AFD9BC",
"S. c #B1DBBE",
"D. c #D0CB87",
"F. c #E3D98A",
"G. c #EEE390",
"H. c #F3E996",
"J. c #D3C0A6",
"K. c #D5C3A9",
"L. c #DAC6AB",
"P. c #DDC9AD",
"I. c #DACBB1",
"U. c #E0CAAE",
"Y. c #E3CEB2",
"T. c #E6D2B5",
"R. c #EAD3B6",
"E. c #E7D4B8",
"W. c #EBD7BA",
"Q. c #EEDABD",
"!. c #F1DCBE",
"~. c #8FAAC1",
"^. c #8DABC8",
"/. c #91AEC5",
"(. c #90AFC9",
"). c #96B3CC",
"_. c #99B2C8",
"`. c #9FBCD4",
"'. c #A1B7CD",
"]. c #AEDDC0",
"[. c #B2DEC0",
"{. c #AFC4DC",
"}. c #B5E1C4",
"|. c #B9E5C6",
" X c #EEDEC1",
".X c #F3DEC0",
"XX c #C2F1D0",
"oX c #F6E1C2",
"OX c #FAE4C5",
"+X c #FDE7C8",
"@X c #FDE9CA",
/* pixels */
"!.Q.Q.!.!.!.Q.!.!.!.!.!.Q.!.Q.!.!.!.!.!.Q.Q.OXoXOXOXoXOXOXoX!.Q.Q.Q.!..XQ..X.X!.Q.Q.Q.!.!..X!.Q.Q.Q.",
".XQ.Q.Q..X!.!.Q.Q.!.!.!.Q.!.!.!.!.!.!.!.oXE.0.r.e.e.r.t.l.P.oX!.Q.Q.!.Q.!.!.!.oXoXQ.!.!.!.Q.!.!.!.Q.",
"!.!.Q.Q.!..XQ.!.!.Q.!.!.W.!.!.Q.Q.Q.!..XE.7.=.b.B.N.V.V.m.L J W.oXQ.!.Q.!.!.!.!.Q.!..X!.!.Q.Q.!.!.Q.",
"Q.Q.Q.Q.Q.Q.!.!.!.!.!.Q.Q.!.Q.Q.Q.Q.!.!.7.n.|.S.[.S.S.}.A.<.6.7.J.Q.Q.Q.!.Q.Q.Q.!.!.!.!. X.XQ.Q.!.!.",
"Q.!.W.Q.Q.Q..XQ.Q.!.!.!.Q.Q.Q.Q.!.Q.!.P.2.}.Z.S.A.[.[.].Z.6.V.m.d P.@X!.!.!.Q.!..X!.Q.Q.Q..X!.!.!..X",
"!.Q.Q.Q..X.X!.Q.!.!.!.!.Q.Q.Q.Q.!.!.oXx.a.S.N.V.A.N.N.Z.S.Z.Z.A.b.w.t.T..XQ.!.!..XQ.Q.Q.Q.Q.!.!..X!.",
"!.W.!.!.!.!..X!.!.!.!.!.Q.Q.!.!.Q.Q.OXt.a.}.Z.V.[.N.a.n.A.A.Z.[.n.N 2.| P..X!..X.XQ.!.Q.Q.Q.Q.!.!.!.",
"!.!.!.Q.!..X.X.X!.Q.!.!.!.Q.!.!.W.!.T.>.5.N.Z.4. .y.q.:.Z.A.Z.A.-.C p.| c.oXQ.!.Q..X.X!.Q.Q.!..X.XoX",
"!.!..XQ.Q..X.X!.!.Q.Q.!.!.Q.!.!.Q.OXu.L U P 6.C.U F.H.Y 2.}.[.A.1.Z <.X..X!.!.Q.!.Q.!.Q.Q.Q.Q..X.X.X",
"!.!..X!.Q.!.Q.Q.!.!.Q.Q..X!.Q.Q.Q.oXP.I H.Y m.N.D.F.G.Y 2.}.M.[.a.M.4.r.OX!.!.!.!.Q.Q.!.Q.Q.Q.Q.!..X",
".X.X.X.X.X!.Q.!..XQ.Q.Q.!.Q.Q.!.Q.oXL.d H =.A.N.D P H G B.M.6.[.N.Z 8.W.!.!.!.Q.!.!.!.!.!.Q.Q.Q.Q.!.",
"!..X!.!.Q.Q.Q.Q.!.!.Q.Q.!.!.!.oX!.OXt.-.p.s o 5.4.Z C <.V.n.S.Z.B.O.R..X!.!.!.!.Q.Q.Q.!.!.Q.!.!.Q.Q.",
"!.!.!.W.!.!.Q.Q.Q.Q.!.Q.Q.!.Q.!.!..XR.>.[.r o -.B.B.A.S.A.A.S.n.p.7..XQ.!.!.!.Q.Q.Q.Q.Q.Q..X.X!.!.!.",
"!.W.!.!.W.Q.!.Q.Q.!.!.!.Q.Q.!.!.!.oXJ.M b.6.M w q.=.b.S.[.V.B.V.Z j..X X!.!.!.Q.Q..X.X!..X!.Q.Q.!.!.",
".X!.!.!.!.!.!.!.Q.OX!.!.Q.W.Q.Q.Q.!.c...H U $ . 6 X - }.A.A.[.V...R.!.Q.Q.Q.!.!.!.!.Q.!.!.Q..X.X!.!.",
".X!.!.W.!.!.W.+Xu.%.+XQ.Q.Q.Q.Q.Q.Q.oX!.!.E.E.:       <.}.[.M.D U.OXQ.Q.!.!.!.!.!.!.Q.!.Q.Q.Q.Q.Q..X",
"!.Q.Q.Q.!.Q.!.E.A - k..XR.!.!.!.!.Q.Q.E.Q..X@X%.- 3   s XXZ.1.a %.L.OXQ.Q..X.X.X.X.XQ.Q.W.Q.Q.Q..X.X",
"Q.Q.!..X.XQ..XK.5 > &.+XoXOXOXoX!.!.!.!.Q.T.Y.r.;.5.a.1. .s g /.{.W 9.OXQ.Q.Q..X.X.X.XQ.Q.Q.Q.Q.Q.Q.",
".XQ..X.X.X!.!..X$.s +.c.l.u.r.8.7.&.$.X...| | F 5 t ^ r = e Q d.g._.e 9..XQ.Q.Q..X!.!.!..X.XQ.Q.Q.Q.",
".X.X.X.X.X!.!..Xx.h Z N s Z a N ^ Z Z Z Z ^ / / a u g e ) R ~.[ ~ i.Q Q j.OXQ.Q.!.!.!.!..X.X.X.X!.!.",
"!..X!.!.!.Q.!.!..Xx.7.8.8.7.$.+.+.X.o...........i y u y ] ) ).{ [ i.R /.W L..XQ.!.!..X.XQ..X.XQ..X!.",
"!.!.Q.!.!.!.!.!.Q.oX!..X!.!.!.oX!..X+XOX!.W.W.!.*.h a ' R [ (.f./.i.T ).{ o..X.X!..X.XQ.Q..X.XQ.Q..X",
".X!.!.!.!.!.!.Q.W.Q.!.!.Q.!.!.Q.OXK.9.I.!.!.!.!.Q.!.o.] y ~.)./._.s.Q ).^._ x..XQ..XQ.Q..XQ..XQ.Q.!.",
".X.X!.Q.!..X!.Q.Q.!.!.Q.!.!.!.!.W.i r G R.!.Q.W.!.!.#.s.! g _ i.i._ ' /._.i.*..XQ.Q.Q.Q.Q.Q.Q..X.X!.",
"!..X!.!.!.!.Q.Q.Q.Q.Q.!.Q.!.!.oXY.f 4 <.t.!.oXoX!.R.@.^.` b.b.B T Q i./.~./.@.U..X X.XW.!.!.!..XQ.W.",
"Q.!.!.Q.!.!.Q.!.!.!.!.!.!.!.!.!.!.!.S Z 2.X.k.T.oXW.} ] ( |.M.` ~._././.~._.g.z..XW.Q..X.X.X!.W.Q.Q.",
"!.!.!.Q.!.!.!..X!.!.!.!.!.oX!.!.Q.!.W.8.>.,.,.| %.l.h g A.C.B { /.~.~./.~./.'.z..X!.W..X!.!.!..X.X.X",
"!.!.!.Q.!..X.X!.Q.!.!.Q.!.!.Q.Q.!.!..X+XI.w. .5.b. .d a.A.N { ^.f.~.~./././.'.*..X.X!.!.W.!.W.!..XQ.",
"!.!.!.!.!.!..X!.Q.Q.Q.W.Q.!.!.!.Q.!..X!.oXoXP.8.>.5.A.}.^ ' s.) i.~.~.~.f.`.@.A +XQ.!.!.!..X!.!.!.Q.",
"Q.Q.!.!.!.!.!.!.!.!.!.Q.!.!.Q.!.!.!.!.!.Q.!.oX.XL.w.6.Z ) ).d.d.~.~.~./.).i.5 J OX!.!.W.W. X.X!.!.Q.",
"Q.Q.!.!.!..X!.!.!.!.!.!.!.Q.!.!.!.Q.!.!.!.!.Q.Q.!.OXL.8.g f.).)._.)._.i.R , % J oXQ.!.!.Q.Q..X!.Q.!.",
"W.!..X!.!.!.!.!.!.!.!.!.!.!..XoX!.!.!.!.Q.Q.Q.Q.!.Q..X@Xj.: ! ) Q E r : * < 6 J OX!.Q.W.Q.W.Q.Q.Q..X",
"W.Q.!.Q.Q.Q.Q.!.!.oX!.Q.Q.!.!..X!.!..X!.Q.Q.!.Q..X!.!..Xx.# & % % & * c v < < 9..XQ..XW.W.W.W.!.Q..X",
".X!.!.Q.Q.!.!.!.!.!.Q.Q.!.!.!.!.Q.W.Q.Q..X.X.X.X.X.X!.OXH 8 & 7 v v v v 7 < 8 x..XQ..X.X XQ.Q..XQ.Q.",
"!.!.!.!.!..X!.Q.!.!.!.!.!.oX.X!.Q.!.!.Q.Q.!..X!..X.X.XE.q 9 # 7 v v c v % < n W..X.X.X.X.X.X!..X.X!.",
".X!.Q.!.Q..XQ.Q.!.!.!.!.!.!.!.!.!..X.X!.!.!..X!.!.Q.OXj.& 8 , b 9 8 v 9 , 7 t..X.X.X.X.XQ.Q.!..X.X.X",
".XQ.Q.Q.Q.Q.!.Q.!.!.Q.!..XQ.Q.Q.Q..X!.Q.W.!..XQ.!.Q.OXt.0 ; $ 6 , $ 9 # $ A W..X!..X X.X!.Q..X.X.XQ.",
"Q.!..XQ.!.Q.!.!..X!.!.!.Q.Q.Q.!.Q..X!.!.!.!. X.X!.Q.+Xw.^ ^ S X.p. .d n J P..X X!.!.W..X.XQ.!..X!.Q.",
"!..X.X.X.X!.Q.!.!.!.!.!.Q.Q.Q.!..X.X.X.X!.!.Q..X.X.X!.f C V &.V.|.N.3.c.x. X.X.X!.Q.Q..X!.Q.Q..X!.!.",
"Q.!..XQ.Q..X.XQ.Q.Q.!..X.X!.!..X!.!.!..XQ.Q.Q..X!.oX%.d / 5 C S.C.N 5 j 2 L..XW.!.Q.Q.Q.W.Q.Q..X!.!.",
"!.!.!.oXQ.!.!.!.Q.Q.!.!.!.!.!.!.!.!.W..XW.Q.W.!.!.!.$.D V N 6.v.D F $.l @ u.OXQ.W.!.!..X!.!.!.Q.Q.Q.",
"!.!.!.!.!.!.!.!.!.!.!.Q.!.!.!.!.!..X.X.X.X!. XQ.!.!..X!.$.v.A. .L..XW.x O o.OXQ.!.Q.W.!.!.!.Q.Q.Q..X",
"Q.!.Q.!..X!.Q.!.!.!.!.!.Q.!.Q.Q..X.X.X.X.XQ.W.W.W.!.@Xl.<.}.| J.OX.XOXh.+ q Q.Q.W.!.W.!.Q.!.!.Q..XQ.",
"Q.!.Q.Q.!.!.!.Q.!.Q.Q.Q.Q.Q.Q.!..X.XQ..XW.!.+X+XOXOXI.| A.;.l.OX!..X!..Xc.j.Q.Q.W.!.!.W.Q.!.!.!.Q.Q.",
"Q.!.Q.Q.!.Q.Q.!.!.!.Q.Q.Q.Q.!.!.!..XW.W..XE.9.m K J.+.B.<.t.oXQ..X.XW.W.oXoXQ.Q.Q.!.!.Q.!.Q.Q.!.Q..X",
"Q.!.Q.!.!.!.Q.!.Q.Q.Q.Q.!.Q.!.Q.W.!.!.!..XP.p @ j k ( <.9.oXQ.R.W..XQ..XQ.Q.!.!.!.Q.Q..X!.!.Q..X.XQ.",
"Q..X.X.X!.!.!..X!.Q.Q.!..X.XQ.Q.Q.Q.!.!. X.XY.F z j + X.+XQ.Q.Q.Q..XQ.Q.!.Q..XQ.Q.!.Q.!..XQ..X!..X.X",
"!.!.!..X.X!.oX!.Q.!.!.!..X.XQ.Q.!.Q.!..X.XQ.OXE.&.1 m OXQ.Q. XQ..X!.!.!.!.!. XQ.Q.!.!..X!.!.!.!.Q..X",
"!.!.Q.!.!.!.!.!.Q.Q.Q.Q.Q.Q.Q.Q.Q.!.!.!.Q.Q.!.oX!.J.Q..XQ.Q.Q.Q..X!.!.W.W.W. XQ.Q.!.Q.Q..X!.Q.!..X.X",
"oX!.!.!.Q.!.!.oX!.Q.Q.Q.Q.Q.Q.Q.Q..X.X!.Q.!.!.Q.!.OXQ.Q.Q.Q.Q. X.XQ.!.Q.Q..X.XQ..XW..XQ.!..X.X!.Q.Q."
};
