/* XPM */
static char *result[] = {
/* columns rows colors chars-per-pixel */
"50 50 194 2 ",
"   c black",
".  c #080A08",
"X  c #0D100D",
"o  c #1A180E",
"O  c #272515",
"+  c #342E29",
"@  c #713130",
"#  c #37443B",
"$  c #574B31",
"%  c #5C5139",
"&  c #61553A",
"*  c #66593D",
"=  c #6B5C3D",
"-  c #73623F",
";  c #3A454A",
":  c #485448",
">  c #585643",
",  c #4D5C51",
"<  c #4D5D59",
"1  c #545B5A",
"2  c #6D4C4B",
"3  c #6A5D41",
"4  c #57665A",
"5  c #6E6242",
"6  c #716445",
"7  c #72654A",
"8  c #766849",
"9  c #7A6B4B",
"0  c #686A5B",
"q  c #4C5B63",
"w  c #555D62",
"e  c #5B6766",
"r  c #5B7265",
"t  c #5C6F72",
"y  c #5E707A",
"u  c #6D6967",
"i  c #657668",
"p  c #6B7B6D",
"a  c #767B6A",
"s  c #617473",
"d  c #6B7E72",
"f  c #6A7A77",
"g  c #64757B",
"h  c #787977",
"j  c #9C2423",
"k  c #973130",
"l  c #A93031",
"z  c #894747",
"x  c #82734F",
"c  c #86655E",
"v  c #837452",
"b  c #887854",
"n  c #8B7C69",
"m  c #A47B6B",
"M  c #6C816F",
"N  c #788263",
"B  c #6D8374",
"V  c #6D867A",
"C  c #768576",
"Z  c #738679",
"A  c #758A7C",
"S  c #79917E",
"D  c #8B916E",
"F  c #888777",
"G  c #988B7A",
"H  c #8C9370",
"J  c #94947C",
"K  c #AF8C78",
"L  c #B58F7C",
"P  c #A7977E",
"I  c #9CAB7E",
"U  c #A4A26D",
"Y  c #BAAF6F",
"T  c #AAA878",
"R  c #ABB07E",
"E  c #BBB97C",
"W  c #637682",
"Q  c #667A8A",
"!  c #687D8B",
"~  c #737F86",
"^  c #6A8282",
"/  c #778986",
"(  c #769381",
")  c #7B9282",
"_  c #7C9985",
"`  c #6E8394",
"'  c #6D869B",
"]  c #748892",
"[  c #758C9E",
"{  c #799299",
"}  c #7FA193",
"|  c #778EA1",
" . c #7C95AA",
".. c #7D95AB",
"X. c #7E99B0",
"o. c #8E9583",
"O. c #829A84",
"+. c #8D9A85",
"@. c #939583",
"#. c #9A9485",
"$. c #979987",
"%. c #999984",
"&. c #9D9C88",
"*. c #828D90",
"=. c #869596",
"-. c #959896",
";. c #A69C86",
":. c #A99E8C",
">. c #B49985",
",. c #8AA387",
"<. c #85A38C",
"1. c #8CA28C",
"2. c #9CA48C",
"3. c #92A98B",
"4. c #89AA95",
"5. c #8CAA94",
"6. c #97A994",
"7. c #96B096",
"8. c #92B59D",
"9. c #94B99F",
"0. c #9BBB9D",
"q. c #A5A28C",
"w. c #ACA38E",
"e. c #B7A789",
"r. c #ABB586",
"t. c #AAA490",
"y. c #A7A992",
"u. c #ADAC94",
"i. c #B2A793",
"p. c #B3AB93",
"a. c #B8AD96",
"s. c #BBB097",
"d. c #8198AB",
"f. c #839DB2",
"g. c #95A2AE",
"h. c #96BBA3",
"j. c #98BEA4",
"k. c #87A3B9",
"l. c #8AA5BB",
"z. c #96ABBC",
"x. c #BFB9A0",
"c. c #C1AF95",
"v. c #C3B49C",
"b. c #C9B79E",
"n. c #C7BAA1",
"m. c #CCBCA3",
"M. c #D1BDA4",
"N. c #B7C08C",
"B. c #9BC1A6",
"V. c #9DC4AA",
"C. c #9FCAB1",
"Z. c #A6C8AA",
"A. c #A2C9AD",
"S. c #A4CDB2",
"D. c #A9CFB3",
"F. c #A5D1B6",
"G. c #AAD2B6",
"H. c #ACD6B9",
"J. c #AED9BC",
"K. c #B1DBBE",
"L. c #C7C280",
"P. c #D3CE86",
"I. c #DFD88C",
"U. c #EDE18E",
"Y. c #EEE390",
"T. c #F1E795",
"R. c #D2C0A4",
"E. c #D5C4AA",
"W. c #DAC5AA",
"Q. c #DDC9AE",
"!. c #DDCCB1",
"~. c #E1CBAF",
"^. c #E3CEB2",
"/. c #E5D2B5",
"(. c #E9D3B5",
"). c #EBD6B9",
"_. c #EEDABD",
"`. c #F1DCBE",
"'. c #8EABC2",
"]. c #91ADC4",
"[. c #91AFC9",
"{. c #9FB3C6",
"}. c #95B2CB",
"|. c #9AB7CE",
" X c #A8BCD1",
".X c #B3DEC1",
"XX c #B5E1C3",
"oX c #B9E5C6",
"OX c #BEECCD",
"+X c #F3DEC0",
"@X c #F6E1C2",
"#X c #F9E3C4",
"$X c #FCE6C8",
"%X c #FEEACA",
/* pixels */
"`._._.`.`.`.`.`.`.`._.`.`.`.`.`._.`.@X#X@X@X@X#X#X@X`.@X+X+X`.`._._.`.`.`.`.+X`.`._._.`.`.+X`._._._.",
"+X_._._.`.`.`._._.`.`.`._.`._._.@X/.b.s.p.u.u.p.e.~.@X`.`.`.`._.`.`.`.`.`.`.`.+X+X`.`.`.`._.`.`.`._.",
"`.`._._.`.+X_.`.`.`.`._._.`.@X_.e.J Z.Z.D.S.S.A.3.3.^.+X`.`.`.`._.`.`._.`.`.`.`.`.`.+X`.`._._.`.`._.",
"_._._._._._.`.`.`.`.`._.).).E.q.0.3.D.XXK..X.X.XoXF.2.(.`.`.`._._.`.`.`.`.`._._.`.`.`.`.`.`._.`.`.`.",
"_._._._._._.+X_._.`.`.`.#X(.p 8.J.8.G.K.K.K.J.J.J..X8.m.@X_.`.`.`._.`.`._.`._.`.`.`._.`.`.`.`.`.`.+X",
"`._._._.+X+X`._.`.`.@X(.b.w.B.J.J.G.K.J.G.Z.J.H.A.K.A.x.@X+X`._.`.+X_._._.`.`.`.`._._._._._.`.`.`.`.",
"`.).`._.`.+X+X`.`.+X(.%.7.M j.XXH.K.J.D.j.S..XG.J.K.V.i.+X_.+X_.+X`._._.`.`.`.+X`.`._._._._._.`.`.+X",
"`.`.`._.`.+X+X`._.+X~.+.9.Z _ G.G.K.H.3.R r.<.4.H.D.h.6.!.`._.`._._.`._._._._.`.`.@X`.`._._.`.`.`.@X",
"_.`.`._._.`.`.`.`.`.`.i.5.S <.H..XXX0.E T.Y.T C.Z.U E I u.@X`.`._.`.`.+X_._._.`.`._.`._._._._.`.+X@X",
"+X`.+X`.`.`._.`.`.).+Xb.5.A.9.XXC..X0.L.U.I.P.V.Z.E U.Y M.+X_.`._._.`.`.`.`.`.`.`._._.`._._._._.`.+X",
"+X+X+X+X+X`._.`.+X_._._.p.C V..XB.V.F.J H U D B.J.5.D p b.+X_._._._._._.`.`.`.`.`.`.`.`.+X_._._._._.",
"`.+X`.`._.`._._.`.`._.`._.$.S.G..XV.D.8.S A 4.V.# 4 h.4.w.+X_.).).`.`.`.`.`.`.`.).`._.`.`._.`.`.`._.",
"`.`.`._._._._._._._.`.).@Xq.B.B.K.J.J.K.J.H.S.8.# , G.7.~.+X_._.`.`.`.`.`.`.`.`.`._._.`.`.+X`.`.`.`.",
"_._.`.`._._._.`._.+X`._.@Xm.V A.G.D.K.K.C.,.N.N i 0.B.S b.@X_._.`.`.`.).`.`.`.`.`.`.`.`.`.`._.`.`.`.",
"+X`.`._._._.`.`.`.+X`.`._._.J C.oXJ.J.XX4 o 5 O $ U J %.s.#X_.)._.`.`.`.).+X).`.`.`.`.`._._.+X`._.`.",
"`.`.`._.`.`.`.`.+X`.`.`.).@X_.F V..XK.j.X     + !.!._.+X@X+X_._.`.`.`.).$Xw.:.%X_.`._._._._.`.`.`.`.",
"+X).+X).+X_.).+X+X_.+X_.#X^.:.p _ G.OX_ . > : D %X@X_._._.+X_._.+X`._.+XR.: a ~.+X`.`.).)._.`._.+X+X",
"+X).+X+X+X_._.+X_._._.#Xc.h  X|.V p ) 4.j.9.<.u.Q./._.@X#X`._.+X+X+X@X%Xp.1 , i.$X`.`.`._._._._._._.",
"+X).+X+X+X+X_.)._._.+Xv.w z.z.l.[ q ; < / s 1 F o.o.%.$.&.q.q.w.t.s.n.R.q.d F @X`.`.`.`.`.+X`.`._._.",
"+X+X+X+X+X_.+X+X+X+Xm.~ Q f.] ] [.Q ' q s g t ) ) / A V A A A Z i Z i d A C i.@X`.`.`.`.`.+X+X+X+X_.",
"+X+X+X+X+X_._.+X+X/.*.k.Q d.d.| }.[ ' Q t g 1 #.@.@.$.#.$.$.&.&.&.q.q.w.q.s._.+X`.`.`.+X`.`.`.`.+X+X",
"+X).+X).+X_.+X).+X:.| |.Q ..].l.[.d.W | f p G `.(.`.`.`.#X@X+X`.`.`.+X`.+X@X+X_.`.`.`.`.+X`.`._._.+X",
"+X+X+X_.+X_.+X+X~./ '.}.! f.[.[.}.[.y ' #.(.(.+X`.`.`./.w.M.+X_._.+X+X_._._._._.`.`.`.`.`.`.`.`._.+X",
"+X+X+X)._.+X+X+Xi.d.[.[...` l.f.{ ^ ! f.*.).+X)._.`.`.&.r 4 /.`._._._._._._._._.`.`.).`._._.`.`.+X_.",
"_.+X+X+X).+X+X/.-.].'.].l.! Q f j.V.=.'.=.Q.+X+X@X+Xb.1.r 0 Q.+X_._._._._._.`.+X_._._._.`._._._._._.",
").+X+X).+X).+XQ.g.}.'.'.].[.].{ B.oX8.[ *.(.$X(.b.%.5.S a (._._.)._._._._._._._.`._._.@X@X@X_._._.).",
"+X+X).+X_.+X+XQ. X].'.].].'.].l.V V..X^ u b.q.o.<.4.1.:.^.+X`._._._._.`.@X@X_._.`.+X_._._._._.@X+X_.",
"+X_.+X).+X+X#Xx.{.[.'.].'.].l.'.k.g A.A.B O.j.h.,.q.W.@X+X_.`.`.@X`.`.`.@X_.`.+X`.+X`.`._._._._.+X_.",
"_._._.+X_.+X#Xe./  X'.].'.'.k.] f. .V J.XXh.5.:.M.@X#X_._._._.`.@X@X_._.+X`._.`._.`.`._._.+X_._.+X_.",
"+X_.+X_.+X).+Xc.7 d.}.[.'.'.l.l.k.}.[ B 7.t.R.`.@X+X_.`.`._._.`._.+X_._._._._._.`.`.+X_._._.+X+X_._.",
"_.)._.+X+X+X$Xc.6 > g X.}.}.[.{.}.'.f #.R.+X@X_._._.`.+X_._.`.`._.`._._._._.`.`.`.`._._._._._.+X_._.",
").+X+X+X_.+X$Xc.8 3 = % e W ` ` ` 1 ;.%X+X_._._._.`._.`.`.`.+X_._.`.`.`.`.`.`.`.+X_._._._._._._._.@X",
").).+X_._.).@Xm.7 3 9 x - = * * * $ e.@X_._.`._.+X`.`.`.`._._._._._.`.`.`.+X_._._.+X_._._._.)._._.+X",
"+X+X_._.`._.+X/.9 5 3 b b v x 8 & 8 n `.`.`.+X+X+X+X`.+X`._._.+X+X_.`.+X+X_._.+X_.+X@X_._._.+X_._._.",
"+X+X+X_._.+X_.+XG 3 * 9 x v x 8 $ 8 8 E.+X_.+X`.+X`.`.`._._.)._.`.+X`.`._._._.+X_._.+X@X_.+X_.+X+X_.",
"+X_._.+X_.+X_.+Xm.6 3 7 b 8 9 b 6 5 5 >.#X`.+X`.`._.`.`._._.`._._._._.`.+X_._._.+X+X@X+X+X+X_.+X+X+X",
"_._._._._._.`._.+XP & $ 8 % > 3 * > 0 ;.+X).).+X`.`.`._._.`.`.`._.+X+X_._._._._.+X_.+X+X_._.+X+X+X_.",
"_.+X+X_._._.`.`.+X(.;.n a _ h.3.F d / &.+X+X+X+X+X`.`.`.+X`._.`.+X_.+X+X_._._.+X_._._.+X+X_._.+X+X_.",
"+X+X+X+X+X+X_.`.`.+XM.M.q.A.oXJ.y.F A a !.+X+X+X`.+X`._.`.+X_.`._._.+X+X+X_.+X+X_._._._.+X_.+X+X_._.",
"_._.+X_._.+X`._.`./.c j 1 i S..XO.4 A d $._.).+X`.+X`.`.+X_._._._.).)._._._._._._._._._._._._._.+X+X",
"_.`.+X+X`.`.+X_.`.m.2 l K #.h B.8.( a o.J /.).+X`._._.`._._._._._.)._.+X+X+X_._._._._.@X_.@X_._._._.",
"`.+X`.`.`._._.`.@Xi.@ l M.+X~.%.H.S.@.).+X+X+X)._.`.+X_.+X`._._._._.+X@X+X_.+X+X+X_._._._._._._._._.",
"_.`._.`.+X_._._.@Xn @ L _._.@X~.o.H.h.a.@X_.).+X_._.@X`._.+X@X_.+X+X+X_.+X_._.+X_._.)._._._._._._.+X",
"_.`._._.+X`.`._.+Xn.m._._._._.@XE.+.H.1.M.#X#X$X#X+X_.@X`._._._.+X+X_._._._._._._._._._.+X_.+X+X+X_.",
"_.`._._._._._._._.@X@X)._._.`._.@Xm.1.F.&.M.>.m >./.`._._.`._._.+X+X_._.+X_._._._.+X+X_._._._._.+X_.",
"_.`.`.`.`._._.+X`._.)._.`._.`._.).@Xv.1.} z j @ u m.@X_._._._.)._._._._._._.+X_._._._.+X@X_._.@X+X_.",
"_.`.+X+X_.+X_.@X_._.`.`.+X`._._.)._.#Xi.@ k z F E.@X`.`.@X_._._._.+X_._.+X+X+X+X_._._._.+X_.+X_._.+X",
"`.`.`.+X+X+X@X+X_.+X`._.+X@X`._.+X_.+X$XK 2 @.!.@X_.`.`._._._._.+X+X_._._._._._._._.+X+X_._.@X_.+X_.",
"+X`._.`.`.`.`.`.`._._._._._._._._.`.`.`.@Xm.).@X_.@X_._._._._._.+X_._._.)._._._._._.+X+X_.+X_.+X_.+X",
"@X`.`.`._.`.`.`.`.`._._._._._._.`.`.`.`.).@X+X_.+X`.`._._._._.@X_.+X+X_._._.+X_._._._._._.+X+X+X+X_."
};
