/* XPM */
static char *result[] = {
/* columns rows colors chars-per-pixel */
"50 50 228 2 ",
"   c #3D0C01",
".  c #2E150E",
"X  c #361B15",
"o  c #3C2218",
"O  c #352338",
"+  c #480E04",
"@  c #550D05",
"#  c #4B1301",
"$  c #491709",
"%  c #531906",
"&  c #4C161D",
"*  c #5C1317",
"=  c #6C0E0D",
"-  c #740D0C",
";  c #7C0D0C",
":  c #7D100F",
">  c #671318",
",  c #791716",
"<  c #54220F",
"1  c #44261B",
"2  c #59291A",
"3  c #662B18",
"4  c #5F1C28",
"5  c #6A1B27",
"6  c #492D22",
"7  c #5B3325",
"8  c #59382B",
"9  c #4F3134",
"0  c #712C2C",
"q  c #673728",
"w  c #672234",
"e  c #693833",
"r  c #763D31",
"t  c #5E4235",
"y  c #7E4525",
"u  c #644638",
"i  c #744939",
"p  c #7D523B",
"a  c #353352",
"s  c #1F3C70",
"d  c #243E6F",
"f  c #3C3A65",
"g  c #493356",
"h  c #483C6A",
"j  c #304476",
"k  c #4E4750",
"l  c #6C4C45",
"z  c #6A5948",
"x  c #785747",
"c  c #645859",
"v  c #7A5955",
"b  c #666058",
"n  c #736356",
"m  c #4F4E6B",
"M  c #444377",
"N  c #495977",
"B  c #577378",
"V  c #6F6F6F",
"C  c #870E0D",
"Z  c #950E0E",
"A  c #871514",
"S  c #8C1010",
"D  c #941212",
"F  c #9B1111",
"G  c #991C1A",
"H  c #A40E0E",
"J  c #A5110E",
"K  c #A41313",
"L  c #AA1313",
"P  c #A61918",
"I  c #88201C",
"U  c #9A211F",
"Y  c #8B2727",
"T  c #93332F",
"R  c #A2342D",
"E  c #AB342E",
"W  c #AA3A34",
"Q  c #874A28",
"!  c #95522C",
"~  c #89473B",
"^  c #87583B",
"/  c #9A5832",
"(  c #A4453C",
")  c #A35E35",
"_  c #A86338",
"`  c #B26C3D",
"'  c #854C43",
"]  c #954C42",
"[  c #875945",
"{  c #995549",
"}  c #AB544A",
"|  c #85614C",
" . c #9B6443",
".. c #996545",
"X. c #967C43",
"o. c #876A58",
"O. c #9B6C53",
"+. c #96725B",
"@. c #A76D47",
"#. c #B5764A",
"$. c #AB7652",
"%. c #B17155",
"&. c #927262",
"*. c #997966",
"=. c #A77A67",
"-. c #B77B6A",
";. c #7B807F",
":. c #A8873D",
">. c #9F8240",
",. c #A9905C",
"<. c #888679",
"1. c #968874",
"2. c #A6816A",
"3. c #B6896B",
"4. c #A88772",
"5. c #B48B73",
"6. c #B98975",
"7. c #B7947A",
"8. c #BC927A",
"9. c #C3957B",
"0. c #C4997E",
"q. c #1F4997",
"w. c #2F4E89",
"e. c #394C84",
"r. c #274F94",
"t. c #2C569C",
"y. c #365A96",
"u. c #2B5BA8",
"i. c #355EA4",
"p. c #2C5DBC",
"a. c #355CB1",
"s. c #3962AA",
"d. c #2D61B6",
"f. c #3866B8",
"g. c #425C88",
"h. c #405B9D",
"j. c #4A6389",
"k. c #536F95",
"l. c #6C7A8C",
"z. c #4369A7",
"x. c #416CB8",
"c. c #4472BB",
"v. c #5979B1",
"b. c #2D5FC6",
"n. c #2D66CB",
"m. c #366BC6",
"M. c #3D73C6",
"N. c #336BDB",
"B. c #3B74D4",
"V. c #3D78DC",
"C. c #3873E1",
"Z. c #4275C7",
"A. c #417BD7",
"S. c #417EE2",
"D. c #328F9A",
"F. c #319DA7",
"G. c #28A7B4",
"H. c #7C858C",
"J. c #748A99",
"K. c #608CB3",
"L. c #33B8C9",
"P. c #4581DD",
"I. c #5CA0C4",
"U. c #4583E4",
"Y. c #4A8AE6",
"T. c #8A8D8E",
"R. c #90938F",
"E. c #969894",
"W. c #A79689",
"Q. c #B89C86",
"!. c #9AA39B",
"~. c #BEA38A",
"^. c #ACA79A",
"/. c #B8AD9E",
"(. c #8F9DA0",
"). c #8EA1A2",
"_. c #99A9A8",
"`. c #9EB3B6",
"'. c #A8AEAD",
"]. c #B7B4AA",
"[. c #A7B8B7",
"{. c #C49C83",
"}. c #C59B87",
"|. c #CA9E83",
" X c #D09E89",
".X c #CAA68B",
"XX c #D3A58A",
"oX c #D7A88B",
"OX c #C9AC93",
"+X c #D9AD92",
"@X c #CBB196",
"#X c #CAB59B",
"$X c #D4B598",
"%X c #E1AD8F",
"&X c #E4B294",
"*X c #E7B698",
"=X c #EAB798",
"-X c #ECB99B",
";X c #C2B6A4",
":X c #D4BDA2",
">X c #DABDA3",
",X c #B7C2BB",
"<X c #DAC4AA",
"1X c #C9C6B5",
"2X c #D0C9B5",
"3X c #D8CCB7",
"4X c #E3CAAE",
"5X c #E8CBAF",
"6X c #E3CDB1",
"7X c #E9CCB1",
"8X c #E6D1B4",
"9X c #E9D3B6",
"0X c #E4D2B9",
"qX c #EAD6B9",
"wX c #EEDABD",
"eX c #F1DCBE",
"rX c #AEC3C3",
"tX c #B6CAC9",
"yX c #B5CACA",
"uX c #BED2CF",
"iX c #BBD1D1",
"pX c #C9CEC3",
"aX c #C0D7D7",
"sX c #C5DCDC",
"dX c #EFDCC0",
"fX c #F2DEC0",
"gX c #F4E1C2",
"hX c #CBE3E3",
/* pixels */
"eXwXwXeXeXeXwXeXfXeXwXwXeXeXwXfXeXwXeXeXdXwXwXdXwXfXfXfXfXeXeXeXwXwXfXfXwXeXfXeXwXwXeXeXfXeXeXwXwXeX",
"fXwXwXeXeXeXeXwXwXfXeXeXwXeXfXwXfXfXfXfXfXfXfXfXfXfXgXfXgXfXeXwXwXdXeXwXeXfXeXfXfXeXeXfXeXwXeXeXeXwX",
"eXeXwXwXeXfXwXeXeXwXfXwXwXwXeXwX7X7X7X7X7X5X4X4X7X7X7X7X7X7XwXeXwXfXfXwXwXeXeXeXeXwXfXeXeXwXeXeXeXwX",
"wXwXwXwXwXwXfXeXeXwXfXwXwXwXfX5X-.W E E E E E E E E E E W ( +XgXwXfXfXfXeXfXeXwXeXeXeXeXeXeXwXeXeXeX",
"wXwXwXwXdXeXfXeXwXeXeXwXwXqXqX>X} P L L L L L L L L L L L U XXdX0XqX7XqX9XqXqXwXeXeXwXeXeXeXeXeXeXfX",
"eXwXwXwXeXeXeXwXeXfXfXwXwX>X6.-.( P L L K H H K K K K K K P %.-.-.-.-.-.-.-.$XwXfXeXwXwXwXeXeXeXeXeX",
"eXwXeXeXeXeXeXeXdXwXdXwXwXXXR U P F F D D Z D Z Z Z D D F D G U U U U U G R 6.9XfXeXeXwXwXwXwXeXeXfX",
"wXwXeXeXeXfXfXfXfXwXwXfXwX XI C C : - - - = - = - ; ; ; ; ; ; ; : : : : : A 6.6XfXeXeXeXwXwXwXeXfXfX",
"wXfXeXwXeXeXeXeXeXeXeXwXwXQ.3 @ @ $ @ + + $ 2 q e e e 9 k c l T ^ O.=.=.=.-.OXwXeXwXeXwXwXeXwXeXfXfX",
"eXeXfXeXeXeXwXwXeXeXwXeXwXQ.% # # + + +   $ u o.+.=.&.B D.F.<.2.7.:XqXqXqXqXwXwXeXwXeXeXeXeXqXwXeXeX",
"fXfXfXfXeXeXwXeXwXwX7X>X#X4.3 < $ % # % < 7 | 5.7.0.7.B G.I.E.0..X:X4X4X4X7X0XwXeXeXeXeXeXwXwXwXeXeX",
"eXfXeXeXeXwXeXwXgXdX:X2.p x | x 2 % # 8 l [ 3.0. XXX}.B G.L.^.oX+X+X$X$X+X$X>XqXwXeXwXeXeXwXeXeXeXeX",
"eXeXeXwXwXwXwXwXwXwX@Xp % q 5.9.i % # p 2.8.0.oX+X&X~.;.G.L.!.oX*X*X=X-X=X*X:XqXeXeXwXeXeXeXeXeXeXeX",
"eXwXeXeXwXwXwXeXwXgX@Xp # q 5.9.i % # t n +.0.&X*X*XOXV D.F.<.3.0.+X-X-X-X=X$X4X6X9XeXeXeXeXeXeXeXeX",
"eXeXeXeXwXeXeXeXwXgX@Xp # 7 4.9.i % # $ $ 8 2.&X=X-X*X.X~.1.u 6 i 5.=X*X=X*XoXXX0.<XwXeXwXwXeXeXeXeX",
"fXeXeXwXeXwXeXeXeXgX@Xi   2 2.8.u $ + +   < +.-X-X-X-X*X&X0.t X 8 2.oXXXXXXX.X0.7.$XwXwXeXeXeXwXwXeX",
"eXwXwXwXeXwXwXfXwXfX$X1.x l u p t 7 7 7 7 u 5.-X-X-X&X5.+.v 8 X 6 u x z x x 1.7.~.<XwXwXwXwXwXwXeXfX",
"wXwXfXfXfXwXwXwXwXwXqX<X#X1.1 1 t +.5.5.3.9.+X-X-X-XoXx 6 o o o o o o 6 1 6 &.#X<XqXeXwXwXeXwXeXwXwX",
"fXwXfXfXfXfXeXwXwXwXwXwXeXQ.X . u 0.*X*X=X-X=X*X-X-XXXu . . . . . o X o o 6 1.3XgXeXeXeXeXfXeXfXfXwX",
"fXfXfXfXfXwXfXeXfXfXqXwXqX@Xv z o.5.XXoX+X&X&X%X&X&XoX+.t t t u t t t l n o.Q.6XeXwXeXeXeXfXeXeXeXwX",
"eXfXeXeXfXwXwXeXwXwXwXfXfXqX6X<X7.4.8.0.|. XXXXXoXoXoX X{.0.0.7.5.5.5.~.0X<X7XqXeXfXeXeXeXeXeXeXfXeX",
"eXeXwXeXeXeXeXeXfXwXwXeXeXqX6X<X1.o.o.&.*.*.*.2.3.5.6.9.9.0.|..X}.}.{.OXwXdXdXwXeXeXeXwXeXgXeXwXwXfX",
"fXeXeXeXeXeXfXwXwXwXwXwXwX:X4.=.[ q q k m k e r r r i i p ' 4..X~.OXOX:XqXwXdXdXeXeXwXeXeXeXeXeXeXeX",
"eXfXeXeXwXeXfXwXwXfXwXwXwXQ.0 A G D C g r.f 5 S A C C A A , Q.qX7X0X9XqXqXwXdXdXeXeXeXwXwXeXeXeXeXeX",
"eXfXeXeXeXeXeXqXdXdXqX4X>X6.A S F L D h u.M 5 H F F F S A , }.6X7X6X6X3X4X<X0XdXeXwXeXwXeXeXeXeXwXwX",
"eXeXeXwXeXeXeXeXfXfX:X=.{ T G F K K D h u.h 5 F F F D 5 g a ' } } } } { { { Q.6XwXwXwXfXfXfXwXwXwXwX",
"eXeXeXwXeXeXeXfXfXfXXX~ A D K K L K S M u.f > S S Z A g w.w.w L K F D D C I 6.dXfXeXwXeXeXeXwXfXeXeX",
"eXeXeXwXeXeXeXeX>X@X-.T F L L K K F C M a.d 9 4 4 4 w M a.y.0 L P L K K F U %..XOX6XeXwXwXeXwXeXfXeX",
"eXeXeXeXeXeXeX9X=.] W U K K K K F S = M m.s.w.e.e.e.e.z.Z.i.w H F K L L L P R ( { OXwXwXwXfXeXeXeXwX",
"eXwXeXeXeXeXeX8X{ ; S F J H K D C - @ j n.B.B.V.A.S.A.B.b.r.4 Z D F K L J J J Z A 9.eXwXwXwXfXwXeXwX",
"wXwXeXfXfXfXeX6X=.Y T T Y A D C > & X f j.z.A.U.Y.U.A.s.g.N 9 * = C S G Y Y Y Y 0 }.wXwXwXwXfXeXwXeX",
"wXeXeXeXeXeXeX9X'.).(.R.V l ; = O d j z >.1.v.U.Y.Y.f.c X.2.N s a * ; 5 b V l.H.&.;XwXqXwXwXwXeXwXfX",
"wXwXeXwXwXwXwXwX1XyXiX,X).V > * a w.q.n :.1.v.Y.Y.Y.x.c >.,.B r.a 1 = e H.)._.`._.1XdXwXqXqXwXwXwXfX",
"wXeXeXwXwXfXwXqXpXiXhXiXrXT.l t a i.t.m c B c.U.Y.Y.Z.g.b V h.u.j O 8 n _.rXyXiX,X2XwXwXdXeXeXeXwXwX",
"eXeXwXeXwXgXwXqXpXsXhXhXsXyX[.(.j.a.m.m.f.Z.A.U.Y.Y.P.Z.c.c.Z.M.g.B ).[.iXuXsXsXyX3XdXgXwXgXeXeXfXeX",
"eXeXwXeXwXwXwX0XpXhXhXhXhXsXyX[.k.m.S.S.U.U.A.U.P.P.P.U.U.U.U.B.z.J.`.rXaXsXhXhXuX3XdXgXwXwXeXfXfXfX",
"eXeXwXwXwXwXwXqXpXiXhXhXsX[.l.v.z.B.S.S.U.A.A.Z.c.M.Z.Z.P.U.U.U.x.k.k.J.iXaXsXsXyX3XqXeXgXeXgXgXfXeX",
"eXeXfXeXeXwXwX9X,XrXiXiXrXJ.j u.n.V.S.S.B.m.s.i.t.t.i.s.M.A.U.U.V.m.u.j._.rXrXtX,X2XqXgXeXwXeXwXeXwX",
"eXfXfXeXfXfXwXqX]._.'.'.'.l.r.p.N.C.C.B.m.i.h.g.g.N y.y.f.B.P.U.U.V.m.j.T.!._._.!.1XqXeXeXeXeXeXeXeX",
"wXeXfXeXwXfXeXqX1X/.^.^.^.l.u.b.N.C.C.n.u.g.l.E.R.E.R.k.y.m.V.U.S.S.B.v.E.^.^.^.^.<XwXeXqXqXeXeXeXeX",
"eXeXeXeXeXeXeXeX8XqXwXeXwX'.a.n.N.N.N.p.q.g./.qXqXwX6Xl.y.d.B.U.S.S.C.K.0XwXwXqX0XqXeXeXeXeXeXwXwXeX",
"eXfXeXeXeXwXeXeXwXwXwX7X<X^.h.a.a.f.a.a.y.V /.dXwXfX0XT.g.z.x.x.Z.Z.Z.J.<X8XqXeXwXwXwXeXwXeXwXwXwXeX",
"eXeXwXeXfXeXwXwXeXeX:X,.$.O.v v v v z W.].;X6XdXwXeXwX2X].].V l v v v O.,.3.+X9XwXwXqXwXwXeXeXeXfXwX",
"wXeXwXeXfXeXeXwXwXfX@X$.) ) ) ) _ ) ^ OXfXqXdXfXwXeXfXeXqX6X$.Q ( ! ) ` ` ` 0.7XwXeXwXwXeXwXeXeXwXeX",
"wXwXwXwXeXeXwXqX$X$X8.@.) ) ) _ _ / y OXfXwXwXeXeXeXwXfXwX6XX.Q ! / _ ` ` #.3.XX$X6XwXwXeXwXwXwXwXeX",
"eXeXeXeXeXeXwX8X5. . ./ ! ! ! ! Q y q ~.fXwXwXwXwXfXeXwXwX6Xn 3 y Q ! / ) _ ` ,.,.@XwXeXgXwXwXgXfXwX",
"eXfXeXeXeXeXeXqX5. . . . . .^ ..^ p i OXgXfXeXwXwXfXfXwXwX8X&.y ^ ^  .@.@.#.#.#.#.OXwXeXeXeXeXeXeXgX",
"eXeXeXfXfXfXfXfXqXwXwXwXwXwXwX9XwXqXqXfXfXfXfXeXwXwXdXfXwXwXqXqXwXwXqX9XwXqXwXwXqXwXeXeXeXwXgXeXeXeX",
"eXeXwXeXeXeXfXeXeXwXeXwXwXeXwXwXfXfXfXeXwXwXeXeXfXfXeXeXeXwXeXeXgXfXeXwXwXwXdXwXdXeXwXwXfXeXwXeXfXgX",
"gXeXeXeXwXeXeXfXfXwXwXwXwXwXwXwXwXeXfXeXeXeXeXeXfXeXeXeXwXwXeXeXfXwXeXwXqXfXeXwXwXwXeXeXfXeXfXeXwXwX"
};
