/* XPM */
static char *result[] = {
/* columns rows colors chars-per-pixel */
"50 50 221 2 ",
"   c #31120A",
".  c #371B15",
"X  c #3D2218",
"o  c #352338",
"O  c #460E03",
"+  c #550D06",
"@  c #4B1301",
"#  c #491709",
"$  c #541906",
"%  c #4C161D",
"&  c #5C1317",
"*  c #6C0D0D",
"=  c #740D0C",
"-  c #7C0D0C",
";  c #701214",
":  c #791716",
">  c #44261C",
",  c #572718",
"<  c #6F291B",
"1  c #5F1C28",
"2  c #6C1A24",
"3  c #492E22",
"4  c #5B3324",
"5  c #57372B",
"6  c #512F35",
"7  c #712F2C",
"8  c #663626",
"9  c #682335",
"0  c #693732",
"q  c #763D32",
"w  c #5E4235",
"e  c #7D4525",
"r  c #654638",
"t  c #744939",
"y  c #7B523C",
"u  c #333654",
"i  c #3B3B66",
"p  c #283E70",
"a  c #4F2E4E",
"s  c #453357",
"d  c #4B3D6A",
"f  c #2F4577",
"g  c #4E4650",
"h  c #694D44",
"j  c #704C4A",
"k  c #6B5849",
"l  c #765545",
"z  c #7C5A49",
"x  c #64595A",
"c  c #7A5955",
"v  c #6F6258",
"b  c #444275",
"n  c #4E5670",
"m  c #577378",
"M  c #6F7173",
"N  c #850E0C",
"B  c #930E0E",
"V  c #8E100F",
"C  c #851716",
"Z  c #8B1313",
"A  c #941111",
"S  c #9B1111",
"D  c #981B19",
"F  c #A40E0E",
"G  c #A4110F",
"H  c #A41312",
"J  c #A91313",
"K  c #A51B19",
"L  c #87201D",
"P  c #97211E",
"I  c #9A211F",
"U  c #8B2726",
"Y  c #9C352E",
"T  c #863231",
"R  c #A3332D",
"E  c #AC342E",
"W  c #A63B34",
"Q  c #874A29",
"!  c #95522C",
"~  c #89463B",
"^  c #88583B",
"/  c #9A5832",
"(  c #A4473E",
")  c #A35E35",
"_  c #A86338",
"`  c #B16C3D",
"'  c #854C44",
"]  c #895346",
"[  c #9A564A",
"{  c #AD584D",
"}  c #87634E",
"|  c #996443",
" . c #99734B",
".. c #876958",
"X. c #98735B",
"o. c #A66B46",
"O. c #B4754A",
"+. c #AB7653",
"@. c #B07554",
"#. c #887266",
"$. c #997865",
"%. c #A67966",
"&. c #B77B6A",
"*. c #7C847F",
"=. c #A7873E",
"-. c #9F8240",
";. c #A88F5C",
":. c #908474",
">. c #968774",
",. c #A9836C",
"<. c #B68A6A",
"1. c #A98672",
"2. c #B48B73",
"3. c #BA8975",
"4. c #AE967F",
"5. c #B69177",
"6. c #BC9279",
"7. c #C4967C",
"8. c #C4997E",
"9. c #1F4997",
"0. c #2E4E8C",
"q. c #394C84",
"w. c #2B5599",
"e. c #365A97",
"r. c #2B5AA7",
"t. c #355EA5",
"y. c #305CB7",
"u. c #3A62A9",
"i. c #2D60B5",
"p. c #3865B6",
"a. c #425C86",
"s. c #445F97",
"d. c #4A6389",
"f. c #546F95",
"g. c #6E7988",
"h. c #4D70AB",
"j. c #416DB9",
"k. c #4472BC",
"l. c #2D5FC6",
"z. c #2D65CA",
"x. c #366BC6",
"c. c #3D72C5",
"v. c #3D74CD",
"b. c #336BDB",
"n. c #3B74D4",
"m. c #3D78DC",
"M. c #3873E1",
"N. c #3F7CE4",
"B. c #4275C7",
"V. c #427AD3",
"C. c #417CDB",
"Z. c #417EE3",
"A. c #318F9A",
"S. c #319DA7",
"D. c #27A7B4",
"F. c #7B838B",
"G. c #718899",
"H. c #608CB3",
"J. c #33B8C8",
"K. c #5B9FC4",
"L. c #4581DD",
"P. c #4483E4",
"I. c #4A8BE6",
"U. c #898C8E",
"Y. c #929290",
"T. c #959894",
"R. c #B89B84",
"E. c #98A39C",
"W. c #BEA38B",
"Q. c #ADA899",
"!. c #B3AA9E",
"~. c #8EA1A2",
"^. c #99A9A8",
"/. c #9EB3B7",
"(. c #A9ACAA",
"). c #BAB3A7",
"_. c #A8B8B7",
"`. c #C59D83",
"'. c #CB9D83",
"]. c #CAA58A",
"[. c #D3A68A",
"{. c #D7A78B",
"}. c #C5AC93",
"|. c #CDAD93",
" X c #D9AD91",
".X c #CAB298",
"XX c #D4B396",
"oX c #D5B89D",
"OX c #E1AF92",
"+X c #E4B294",
"@X c #E7B597",
"#X c #EAB798",
"$X c #ECB99B",
"%X c #C5B8A6",
"&X c #D5BDA2",
"*X c #AFC1BE",
"=X c #CCC0AD",
"-X c #D6C2A8",
";X c #DBC5A9",
":X c #C6C5B6",
">X c #D7CDB8",
",X c #E6C7AC",
"<X c #E4CAAE",
"1X c #E2CEB2",
"2X c #E9CCB1",
"3X c #E6D1B5",
"4X c #E9D2B5",
"5X c #E7D4B8",
"6X c #EBD6B9",
"7X c #EEDABD",
"8X c #F1DCBE",
"9X c #ADC3C3",
"0X c #B5CAC9",
"qX c #B5CBCB",
"wX c #BCD2D2",
"eX c #CACEC3",
"rX c #C0D7D7",
"tX c #C5DCDC",
"yX c #F3DEC0",
"uX c #F4E0C2",
"iX c #CCE3E3",
/* pixels */
"8X7X7X8X8X8X8X8XyXyXyX6XyXyXyX7X7X7X7XyX7X7X7X7XyX7XyXyXyXyXyX7X7X8X8X8X8X8X8X8X8X7X8X8X8X8X8X7X8X7X",
"yX7X7X8X8X8X8X7X6XyX7XyX6X7XyX6XyXyX7XyXyXyXyXyXyXyXyXyXuXuXyX8X8XyX8X7X8X8X8X8XyX8X8X8X8X8X8X8X8X7X",
"8X8X7X7X8XyX7X8XyX6XyXyX7X7XyXyXyX7X7X6X,X,X,X,X2X2X2X2X2X2X2X2X2X7X7X7X8X8X8X8X8X8XyX8X8X7X7X8X8X7X",
"7X7X7X7X7X7X8X8XyX6XyXyX7XyX7X7XyX7XyX X{ E E E E E E E E E E E E &.2X8X8X8X8X7X8X8X8X8X8X8X8X8X8X8X",
"7X7X7X7X7X7XyX7X6XyXyX6X4X4X1X3X2X1X4X'.I J J J J H J J J J J J K { ,X2X7XyX7X7X8X8X8X8X8X8X8X8X8X8X",
"8X7X7X7XyXyX8X8XyXyX4XXX3.&.&.&.&.&.3.{ K J J H H H H G G H H H K W &.7.-X7X7X8X8X8X7X7X7X8X8X8X8X8X",
"7X7X8X8X8X8X8XyXyXyX4X3.R D P I I P I D D S A S B B B A A B S B S D I R [.7XyXyX8X8X8X7X7X8X7X8X8X8X",
"8X7X8X8X8XyXyX8XyXyX2X3.C - N N - - - - - - - ; - ; * = = = = - - - N U ].7X7X8X8XyX8X8X6X8X8X8XyXyX",
"7X8X8X7X7X8X8X8X8X8X4X|.&.%.%.%.X.' e t g g 5 8 7 0 8 , # O O + @ + + < R.7X7X7X8X8X8X7X7X7X7X8XyXuX",
"yX8XyX8X8X8X7X8X8X8X7X7X7X7X2X6X&XR.%.:.K.A.m #.$.X...w # O   O @ @ @ , R.7XuX7X8X6X8X8X7X7X7X7X8X8X",
"yXyXyXyXyX8X7X8X8X7X7X2X<X<X<X<XoX[.8.E.J.D.G.1.8.5.2.} , , $ + @ $ , 8 1..X;X5X8X8X8X8X8X7X7X8X8X8X",
"8XyX8X8X7X8X7X7XyX8X6X&XXXXXXXXX|. X{.Q.J.D.m `.{.[.'.,.} t 4 @ $ 4 y z l l ,.oX8X8X7X8X8X8X8X8X8X8X",
"8X8X8X7X7X7X7X7X7XyX7XoX@X$X#X#X#X+XOXE.J.D.m [.+X X[.].5.$.y @ $ t 6.<.8 $ ^ .X8X6X7X8X8X8X8X8X8X8X",
"8X7X8X8X7X7X7X7X5X2X<XoX@X$X$X$XOX`.1.:.S.A.M {.#X@X X`.$.z 0 @ $ t 8.2.8 @ y }.8X8X8X8X8X8X8X8X8X8X",
"8X8X8X8X7X8X8X7X&X`.[.{.@X@X#X$X5.y 3 r >.R.].#X$X$X+X%.8 $ # @ $ t 6.,., @ y .X8X8X8X8X7X7X8X8X8X8X",
"yX8X8X7X8X7X8X7XoX5.`.].].[.[.{.$.5 . r 7.@X#X$X$X$X@X+.>     O # t 6.,., O t .X8X7X8X8X8X8X8X7X8X8X",
"8X7X7X8X8X7X7X7X-XW.4.X.c l l l r 3 X 5 z X.5. X$X$X$X2.t 5 5 4 4 5 z t h l >.-X8X8X8X8X7X7X8X7X8XyX",
"8X7X8X8X8X7X8X7X3X;X&X#.3 X 3 X > X X X X o z {.$X$X$X{.6.2.2.2.$.r > > >..X-X5XuX8X8X8X8X8X7X8X8X7X",
"8X7X8XuXuX8X8X7X6XuX;X:.3 X X X . .       . r [.$X#X@X@X#X#X+X+X8.r   X R.7X7X7X8X8X8X8X8X8X8X8X8X7X",
"yX8XuX8XuX8X8X7X7X8X1XW.#.v h 0 w w w w 5 r X.{.$X@X+X+X+X X{.[.5...k c }.7X7X7X8X8X8X8X8X8X8X8X8X8X",
"8X8X8X8X8X7X8XuX8X8X7X3X1X1XR.1.4.2.6.7.8.8.'. X{.[.].].'.].8.5.1.R.-X1X5XyX7XyX8X8X8X8X8X8X8X8X8X8X",
"uX8X8X8X8X8X8X7X8X7X7X7XyX4X|.`.8.].'.].8.7.7.6.2.,.,.,.%.$.$.....>.-X1X4X6X7X7X8X8X8X7X8XuX8X7X7XyX",
"8X8X8X8X8X8X8X7X7X8X7X8X6XyX&X}.}.W.W.1.^ y t q q q q 0 g g a 8 7 ] %.1.&X6X7X7XyX8X7X8X8X8X8X8X8X8X",
"8XyX8X7X8X8X8X7X7X8X8X7X6XyXyX5X3X1X5XR.: C Z Z C N Z 2 i w.s V S D C 7 R.6X7XyX8X8X8X7X8X8X8X8X8X8X",
"8XyX8X8X8X8X8X6XyXyX5X6X;X1X1X>X,X,X2X7.: C Z S S S G 2 d r.d Z J S A C 5.;X2X6X8X7X8X7X8X8X7X8X8X7X",
"8XyX8X8X7X8X8X8XyXyX3XR.[ [ [ { { { { ' u s 9 A S S F 2 i i.d A J J S A Y [ %.&X8X7X7XyXuX8X8X7X7X7X",
"8X8X8X7X8X8X8XyXyXyX3X3.L N A A S S H 9 0.e.a A B B B & i r.d Z H H H H A Z ~ }.uX8X7X7X8X8X8X8X8X8X",
"8X8X8X7X8XyXyX8X,X.X`.@.I S H J J J J 9 e.u.f 9 1 1 1 6 f i.d N S H H H K A Y &.|.-X7X7X7X8X8X8X8X8X",
"8X8X8X8X8X8X8X8X].[ ( R K J J J J J S 9 t.c.u.q.q.q.f 0.r.x.b * V B H J J J I W [ ,.4X8X7X8X8X8X8X7X",
"8X7X8X8X8X8X8X6X6.C B F F J J H S A N 9 w.x.n.m.C.C.L.n.n.z.i + = V B H H F F B - [ 3X7X7X7X8X8X8X7X",
"7X7X8X8X8XyX8X6X6.T U U U U A A - * & a f d.s.V.I.P.P.V.h.q.i . % & Z A C U U T 7 %.3X7X7X7X8X8X8X8X",
"7X8XyX8X8X8X8X7X).*.F.M M x 2 = & u p n ;. .x B.I.I.P.H.:.-.x f p o * : j M U.T.^.).3X6X7X7X7X8X7X8X",
"6X7X8X7X7X7X7X7X=X^./.^.~.F.8 & # u 9.m ;.-.x k.P.I.L.h.>.=.v 0.0.o & < v ^.9XqXqXeX5XyX6X6X6XyX7XyX",
"7X8X7X8X8X8X8X7X>X*XqX0X9X^.v w 6 f i.f.m x d.B.I.I.I.B.d.v n u.w.u 6 h Y.9XwXtXwXeXyXyXyX6XyXyX7X7X",
"8X8X8X8X8X8X8X6X>XwXtXtXrXqX/.T.m q.c.B.k.j.B.L.I.I.I.C.c.p.p.b.p.d.~._.wXtXiXiXtXeXyXyX6XyX6XyXyX8X",
"yX8X8X8X8X8X7X6X>XwXiXiXtXrX9X/.G.h.m.P.P.L.L.L.C.L.L.P.P.P.N.N.x.f./.wXtXiXiXiXtXeX6XyXyXyXyXyXyXyX",
"8X8X8X6X8X8X8X6X>XqXtXtXtX0XG.f.f.p.P.I.P.C.V.B.B.k.c.v.L.P.Z.Z.n.h.f.G./.tXiXiXtX:X5XyXyXyXyXyXyX7X",
"8X8X8X8X8X8X8X7X>X_.0X0X9X^.d.u.x.C.P.P.V.x.p.t.r.w.u.p.x.n.N.N.m.l.w.0.G.9XqXwX0X*X5XyXyX6X6XyX8X7X",
"8X8XyX8X8X8X7X7X=XE.^.E.~.U.f.x.C.Z.P.C.B.p.e.a.n q.d.e.u.x.b.M.M.b.y.0.G.^.(./.^.).5XyXyX7XyXyX8X8X",
"8X8X8X8X8X8X8X7X=XQ.Q.Q.Q.T.h.n.Z.Z.Z.C.x.t.f.U.T.Y.T.F.a.r.x.M.b.b.l.r.F.Q.!.Q.!.%X5X7X6X7X6XyX8X8X",
"7X8X8XyX8X8X8X8X6X6X7X7X7X>XH.m.Z.Z.Z.n.i.e.g.1X6X5X6X!.d.9.i.b.M.b.z.p.(.6X7X7X6X7X8X8X7X8X8X8X7X7X",
"yXyX8X8X8X7X8XyX8X8X8X6X<X;XH.k.B.k.j.j.s.a.U.>XyXyXyX%XM 0.t.u.y.y.y.s.Q.<X3X6X8X7X7X7X8X8X7X7X7XyX",
"7XyX7X8XyX7X7X7X8X8X5X|.7.@.} } c c j M (.).%XyX7XyXyX>X%X).T.k } c c c  .+.<.oX8X7X7X7X7X8X8X7XyX7X",
"7X7X7X8XyX8X8X7X8XyX5X8.` ` o.) / / Q +.3XyXyXyX7X7XyXyXyXyX}./ ) { _ ) ) ) +..X7X7X7X7X8X8X8X8X7XyX",
"7X7X7X7X8X7X7X7X<XoX|.<.` ` ` ) / / e  .2X7X7X7X8X8X7XyX7XuX].e / / _ ) ) ) o.5.|.&X7X8X8X8X7X7X8X7X",
"7X8X8X8X8X8X7X7XXX@.O.o._ ) ) ! Q e 8 } 1X7X7X7X7XyX8X7X7XuX4.8 e Q ! ! ! ! / _  .5.3X8X8X7X8X8XyX8X",
"8X8X8XyX8X8X8X8X|.+.O.O.O.o.o./ ^ ^ t $.1XyX7X7X7XyX8X8X7XuX].t y ^ ] | | | | | | <.5X8XuX7XyX8XyX7X",
"8XyX8XyXyXyXyX8X7X7X7X7XyX7X7X8X7X4X5X8XyX8XyX8X7X7XyX8X7X7X7X6X8X7X6X6X7X7X7X7X6X7X8X8X8X8X8X8X7XyX",
"8X8X8X8X8X8XyX7X8X7X7X8X7XyX7X7XyXyXyX8X7X8X8X8XyXyX8X8X8X7X8X8XuXuX8X7X6X7X8X8X8X8X8X8X8X8X7XyX8XyX",
"uX8X8X8X7X8XyXyX8X7X7X7X7X7X6X7X7XyXyX8X7X8X8X8X8X8X8X8X7X7X8X8X8X8X8X8X7X8X8X7X7X7X8X7XyX8XyX8XyX7X"
};
