/* XPM */
static char *result[] = {
/* columns rows colors chars-per-pixel */
"50 50 52 1 ",
"  c #F3DEC0",
". c #ECD8BB",
"X c #EFDABD",
"o c #F0DBBE",
"O c #F0DCBE",
"+ c #F1DCBF",
"@ c #F4DFC1",
"# c #F1DDBF",
"$ c #EFDBBD",
"% c #F2DDBF",
"& c #F2DEC0",
"* c #F5E1C2",
"= c #F6E1C3",
"- c #EEDABC",
"; c #F5E0C2",
": c #F6E1C2",
"> c #EDD9BC",
", c #F2DDC0",
"< c #F4E0C2",
"1 c #EEDABD",
"2 c #F3DFC1",
"3 c #F8E2C4",
"4 c #F3DEC1",
"5 c #EFDBBE",
"6 c #EED9BC",
"7 c #F0DCBF",
"8 c #F1DCBE",
"9 c #F3DFC0",
"0 c #EDD8BB",
"q c #F0DBBD",
"w c #EEDBBD",
"e c #F6E2C3",
"r c #F7E2C4",
"t c #F4E0C1",
"y c #F2DEBF",
"u c #EDD9BB",
"i c #F6E0C2",
"p c #F5E1C3",
"a c #F8E3C4",
"s c #F4DFC2",
"d c #EBD7BA",
"f c #ECD8BA",
"g c #EED9BD",
"h c #F7E3C4",
"j c #ECD9BC",
"k c #F1DDC0",
"l c #EAD6BA",
"z c #F7E2C3",
"x c #ECD9BB",
"c c #F5E0C3",
"v c #F5E0C1",
"b c #FAE5C6",
/* pixels */
" .Xo OO+@#$#+#+% O% O$%+&#&*=# O-#%;X :%o>O&,&%X+$",
"&&O#<,,O12%#X%#$%@#2##,Oo3,##&#>X&%1%4O;<#@2+O%2%5",
" O6O@,> ++ ,-&#,O$O #55#O@@+&#; O22o+&&#+O,&,5O#%O",
"Oo-5O7&#+$4$>OO1#6$ &O>-O%-8+8o5$8 Oo,O$%#%%#&o+O#",
"$+Xo##48O# o$-->@6-O8-$++O$&&5 &,$ #&,5O 9X&#4,O @",
"8O16%4##+@,8,&OO8%@1+oOO$O%,*4 0@ -q$o## $8>-#+@&#",
"+.2++,#+4+&XoO&2-OOw# %#.6&8+O@%225+O#&e@qo-1 $o% ",
"#+#$%;*2+$ @,6#o-5-85$O1&$.$o+>#O$,X6+$,O;;%-OOr&=",
"+ ;7$#2#@&$O#142#&@&Xo%O88##%@ $$&;<O$OO,$t1> >,@;",
",+%##%>-,oXo;,$$52#&*&#oOO1&&&O2OX#2O,@Oy>o88#1X&9",
"&@:@;OO+&1>$#o1,8y &#O<y46++$+OXu55> ,2O# ,@;-1O>&",
" @@%o$#O2&&#8%@=@##@9X8,-.X8X$O-X,%&,++O-&5&O5#y8$",
"%OO15%$$O##1#%$,2&o>$O+r..8$8%-%8##O%#@Oo$-#O<&+ +",
"$> ,$$O8>  81>+ ;Ooo+&$,Ooe&#&-1O@+oO@O5o#4&@o$%o%",
"*&%+O,#& <& O>$#1>4#i=@u$>&5o2#>-+OOOX$ O:# -X@;O#",
"4+OX O##%8to#-$$-O#o#;##O1;4O@$$o2#$8OO @O$%++%$O;",
"+$O# >1 pq;o- @ &6-1$y %;9O$2<$ &@&$$ @@,%qX>$Oo%2",
"&o#22OO%5O85&:r+#O+$--#$O$1<p5-$$$; %O%2as&,-1$+oo",
"+$@&@92>1+.#%@ $$1O1-1&O65+#;1oXdf4##+>X2,## 2o;#q",
"; =4<O@8% $&&t#,2##1 2o1>6X$<X8+ $o1#@O1 O&84 @%,o",
"+;#O,$#,&#6,9#O<#+;&O8#5#X5o=t181Ot@-5#54 ;@2%&&  ",
"@85%&+++8X#, OoO5O4%-1#O$#&O7 28o%#O#OOO#,+o#@&15;",
",& + O@O$&$%6%@5;$$%o$$O@%&O-11OX+@O-O5O&5$, +@OO#",
"&;+o$  6-&8OO2;Og-++-o >%8 &#X.# O&,>$Oo8%o6$$%,@&",
"+*% o##XO$OO#+@#+$2 %o< #%O$1>O7&o--$$ 4$O#$y#8#O>",
"$4&XO8%o+# OO2@s$4%@ <@##--4o--+>$+X%11#5oO=:;8o5>",
"%#$o#,,; @ 9@@%X$+o#%##1 XO&+% $$$O8h 4-%&.O 1O   ",
"%#y$#&=9>OO1& 1+os3;,++OO##%OoO,@2o&r# @ @,o$%O8@O",
"#+#%+ 4%-$81+#5&>8@;2 oXo &@+%O#2r#$ %##OO,O,2&+ O",
"+62#@O$o oO$%+1+;&#2+s;1O,% $51&O*$$1$#X%%2-.+%  $",
"o-#%%= O&%<%&XO;<18X##-$o O@5O %X#o+o5% O#&OXO&O58",
"X,22+2&%1  y#%=:&O25O8+o%#+O,%s5O%OO9#  &,1>X7X O@",
".$#1.-1@ ;&OO &;#8&+o5+X+# 7&#$$75 o %+O+o&O$.>-O4",
"%##O% y@8+>O+O$@$1+$;&=@a9 &2o$@@$,@+ +&1@;<jO&#5O",
" #8OO2o+; O+:=@@$&1O1O; @ @q$d-5&<O2#o$##&#r,=%%s8",
"2%$;O25>o2&&&8&##;@   ;$&6#&O#OOX1X##O#$22;<O5$=,<",
"2O-$>y+$<&6@&$$$X#@5$%%k4y%$X&O#7&: -O##o@%,%#;;pO",
"o&&#+# #%+ #16O&+,o+%###@%##,2o# O=,Oo+# 8$=&5+%Oo",
"#<t @ -%428&16O&,e*&X%# ,@oo,;O+#$+@#&@ %$$O4-&  o",
"o%#8O  #66#;;& @ %+r$O5#,<%k4#$$%lu>$$$>%X$16$+,&o",
"$& zO#2#-8 @4@&# +5&1$1O8#&#8-6-%>1;;@,7>%&2+@&OOO",
"&@%+#qO=$++8-8&$#@ #2&oX1 +o&2&>#1@;;O&&#$$8O#$-u ",
"$;Oo*8$O2#8+$ 1xc@ =&o$7q&v + ;o &&O#++ $$xO5+<O #",
"186#2,,1%1&$oX# 2#+8o-,@OO2&%##O&;6+#%Oo0#O6##,O&O",
"1##1o$$+8@+.X$2O&2>+#o8#O%O,,#$$* 1-#$O6$ #q OO5#O",
"O%o#9#X#&>.X@X,+>$O%+8X-O@+O#X-.-,1O2O%#%5# 27$ =o",
"$ 2; % 2+5 %;2o>$#&%1@&$52@ #O5oO&OO##2O$++o<5<@#&",
"%@%@@&=2O#&+@@&O96+;@%@ 15++OOO7;%#o,#,#1#*&O#&OO&",
"++$&y&%O$$5o$#.$  2ooX# ;@@#o-%$p##1d>o5O++O%##9,;",
"b#8#u+ @@o-o1O$$5s2%$ oO9 %$#O%+2O o>, OoX&O2% &#O"
};
