/* XPM */
static char *result[] = {
/* columns rows colors chars-per-pixel */
"50 50 205 2 ",
"   c #E1CBAE",
".  c #E4CFB3",
"X  c #E2CBAE",
"o  c #DFCAAE",
"O  c #DEC8AC",
"+  c #E0CAAD",
"@  c #DFCBAE",
"#  c #E3CEB2",
"$  c #E0CBAE",
"%  c #E1CCB0",
"&  c #E0CAAE",
"*  c #E5CFB2",
"=  c #E4CEB1",
"-  c #DFC9AD",
";  c #E0CBAF",
":  c #E3CDB0",
">  c #E6D1B3",
",  c #E2CDB1",
"<  c #DEC9AD",
"1  c #E3CDAF",
"2  c #E1CCAF",
"3  c #E1CBAF",
"4  c #E6D0B3",
"5  c #E1CDB1",
"6  c #E4CEB0",
"7  c #E2CBAF",
"8  c #E3CCAF",
"9  c #DFCAAD",
"0  c #DEC8AB",
"q  c #E6D1B4",
"w  c #E2CCB0",
"e  c #E0C8AB",
"r  c #DFC9AB",
"t  c #E3CBAE",
"y  c #E1CAAE",
"u  c #E2CCAE",
"i  c #E1CAAD",
"p  c #E2CBAD",
"a  c #DAC4A7",
"s  c #DEC6AA",
"d  c #E5CEB0",
"f  c #E3CCAE",
"g  c #DDC7AA",
"h  c #DFC9AC",
"j  c #DEC9AC",
"k  c #E1C9AC",
"l  c #E2CCAF",
"z  c #E4CDB0",
"x  c #E5CDAF",
"c  c #DCC5A8",
"v  c #E4CFB2",
"b  c #DFC8AA",
"n  c #DEC7AA",
"m  c #E1CAAC",
"M  c #DCC4A7",
"N  c #E0C9AC",
"B  c #DCC6A9",
"V  c #E1CBAD",
"C  c #E5D0B2",
"Z  c #DDC6A8",
"A  c #E4CDAF",
"S  c #DFC8AB",
"D  c #E5CDB0",
"F  c #E4CCAE",
"G  c #E4CCAF",
"H  c #E1C9AB",
"J  c #DDC6A9",
"K  c #DEC8AA",
"L  c #E1CCAE",
"P  c #E6CFB1",
"I  c #DFC7AA",
"U  c #E3CBAD",
"Y  c #E0CAAC",
"T  c #DEC6A9",
"R  c #E2CAAD",
"E  c #DBC5A8",
"W  c #E2CAAC",
"Q  c #DBC4A7",
"!  c #E0C9AB",
"~  c #E5CEB1",
"^  c #DFC6A9",
"/  c #E6CEB1",
"(  c #E9D1B3",
")  c #E7D0B2",
"_  c #E6D0B2",
"`  c #DEC5A8",
"'  c #DDC5A8",
"]  c #E6D0B4",
"[  c #E9D2B4",
"{  c #E8D2B5",
"}  c #E5CFB1",
"|  c #E6CFB2",
" . c #E2CDB0",
".. c #E0C9AD",
"X. c #E5D0B3",
"o. c #EAD3B5",
"O. c #EBD5B6",
"+. c #DDC6AA",
"@. c #E2CDAF",
"#. c #E9D1B4",
"$. c #DBC4A8",
"%. c #E8D2B4",
"&. c #E7D0B1",
"*. c #DFC8AC",
"=. c #E9D2B3",
"-. c #E9D3B5",
";. c #E7D1B3",
":. c #E7D0B3",
">. c #EBD5B7",
",. c #E7D1B4",
"<. c #E7CFB1",
"1. c #E8D1B3",
"2. c #DEC7AB",
"3. c #E7CFB2",
"4. c #E6CEB0",
"5. c #DFC7AB",
"6. c #E3CCB0",
"7. c #E4CFB1",
"8. c #E3CEB1",
"9. c #DAC2A6",
"0. c #E5CCAF",
"q. c #E4CDB1",
"w. c #DBC5A9",
"e. c #E5CFB3",
"r. c #DDC7AB",
"t. c #E4CEB2",
"y. c #E9D4B7",
"u. c #EAD4B6",
"i. c #EAD3B6",
"p. c #E8D1B4",
"a. c #DCC5A9",
"s. c #E1C9AD",
"d. c #E6D1B2",
"f. c #DDC8AB",
"g. c #E9D3B4",
"h. c #E3CDB1",
"j. c #E8D3B5",
"k. c #EAD2B4",
"l. c #ECD5B7",
"z. c #EBD4B6",
"x. c #E5CEAF",
"c. c #E8D0B2",
"v. c #E7D2B4",
"b. c #E3CEB0",
"n. c #DCC7AA",
"m. c #EAD5B7",
"M. c #E9D5B7",
"N. c #E7D2B5",
"B. c #E8D0B3",
"V. c #DAC3A6",
"C. c #ECD4B6",
"Z. c #E3CAAE",
"A. c #E0C8AA",
"S. c #DCC4A8",
"D. c #E5CEB2",
"F. c #E9D3B6",
"G. c #E6D0B1",
"H. c #EBD3B5",
"J. c #DDC5A9",
"K. c #EAD4B7",
"L. c #EBD6B8",
"P. c #E5D1B5",
"I. c #E8D4B7",
"U. c #E8D4B6",
"Y. c #ECD4B7",
"T. c #E9D4B6",
"R. c #EAD5B8",
"E. c #DEC7A9",
"W. c #EAD2B5",
"Q. c #E3CDAE",
"!. c #E8D1B2",
"~. c #EBD4B7",
"^. c #E0C8AC",
"/. c #E7D2B3",
"(. c #E6CEB2",
"). c #E3CAAD",
"_. c #ECD6B8",
"`. c #E9D2B5",
"'. c #CDBAA0",
"]. c #CEBAA0",
"[. c #CEBBA1",
"{. c #D0BCA2",
"}. c #CDB9A0",
"|. c #CDB99F",
" X c #CFBCA1",
".X c #CFBCA2",
"XX c #CFBBA0",
"oX c #D0BBA1",
"OX c #CFBDA3",
"+X c #CDBBA1",
"@X c #CCB89F",
"#X c #D0BCA1",
"$X c #CBB89E",
"%X c #C9B59C",
"&X c #CEB9A0",
"*X c #CBB79D",
"=X c #D4C1A7",
"-X c #CBB89F",
";X c #CFBBA1",
":X c #D3C0A6",
">X c #CBB79E",
",X c #CCB89E",
"<X c #D2BEA4",
"1X c #CDB89F",
"2X c #D1BCA2",
/* pixels */
"    . X   o O + @ # $ % & * = = - + ; : > , & < < 1 , * = &     2 3 O 4 ; 5 6 * = + o 7 8 9 + 0 q w ",
"e r t   + X y u i p a s d f g 0 h j d k l z x c X v b n m 1 : h 0 l 8 f M p : p p N B X   V 8 C u Z ",
"e 8 A + S A i u V t D X N N F G i u H J K L i r P I S u P 8 i U m A 6 Y i X f p T R u f n p S S E m ",
"8 G W n Q ! J U i A d N A x h ~ A k ^ W S m + / X ( i N ) x J W m I I _ P p A ! 6 6 f x ` ' f t R i ",
"_ 8 ] : [ { 6 } | X k C X _ 8 X  .} ~ 8 8 : N ..u P z z z 3 2 z d N X.N * i o.| y X X   | O.} X i f ",
") R X m i 0     V g n +.} 1 X A k f ..E ..1 k f V 1 0 u N p P 7 @.S G #.N z d u $.A f t k | : S ~ %.",
"i x : x 0 z i N V i v V V z N d z &.X *.A ) ~ =.> N z i d z A f } A t ) 0 l N X n N N G ( X V i !   ",
"8 } %.* * -.} N t ;.P :.>.o._ | ;.X.v l ,.d <.= ~ ~ 1.8 _ = w : ; q 1 } * z X 1 N 6 1.o.q : ,.~ A n ",
"X D X 2.i e d z ~ ~ 3.n k f d 8 G x 8 A X ;.d P _ 4.! 1.8 X P d x 1.= | | ) I e x | o.P J N X A + 8 ",
"} W t l ~ z J k z 5.A : 3.;.S b i 6.t } A I n i i 6._ i F f + P 8 A x S h + 7.8 8.A f A * A z ( k 9.",
"2.i 0.A 6.* q.| ;.| X.0 - w.Y z e J 6.6.e.4 :.X , i 0 : 1.k J P * 6.,.[ %.l r.t.8 i i W a : ~ y.u.> ",
"g 1 u.i.* u d z d d :.D : 0 g z = 8.z : g A 8 ~ p.2 g O P 4   :   6 S *.i ~ ~ ; ~ X } 1.3 N 4 %.X i ",
"z t P i 8 P R m ~ | c N f d 0 a.f d A p n p _ Y S X } ~ i u n P h i S 8 : ! i i 4 = X s.0 J N i p ;.",
"1 i l f N   * y = l d.9 X   N 8   ;.l n S = +   9 A l z m i i h : 6 = i f.V +   6 ~ p.X u u N   : -.",
"} _ D : * * A z | g.) = } A 8 1.X h.z | ~ :.X 8 ,.} :.} 8.| 8 ~ ,.= 4 g.d %.P [ z 4 : l * j.= } ;.} ",
"p.X P 8 X ~ [ t j.) =.+.4.l A ) R 8 4.) z * y 8 i i } ~ X l z k.| z * C 8 A 1.n D 3.1.1 * [ G 8 X.l.",
"-.X h : z P ~ :.6 z i 0 8 4 u   0 8 A 1 X ;.* i r.G 2 + ~ l 7 4.| @._ o.6 8 X l ,.z ~ P 2.8 z z.* ;.",
"f 5.P S f $.p p f S 1 } 8 N A x.2.R f i e R m c.~ X t R W A i 8 T p 0 X ! 1.1 N k D x N c R N A 8 N ",
"X G { : G v.* t _ = X X S : X ) p.4.|   *   : 4.  k l ) k %.1.1.b.8 ..i + 8 8 2.6 k i i 8 6 g *.6 z ",
"i B n.m.h g : 1 1 V 6 K M.u : 1 i  .: l g 1 k h u 4 ;.n   B N.+ *   z =.B h P ,.V 7.E X.2 C  .  f z ",
"i m A I S ..G : x <.m B.V.N k f t 4.  ) ~ G P t P m d G t 1.e } X | V c.<.X C.X o.X z f Z.) t   t e ",
": i p u a.P A <.P l A.N i P A f S.<.i 8 W P z i h i _ d d k <.i i x P ~ N J d X _ z R + A d k n e A ",
"X | ;.~ 8 P : :.) ~ ,. .f   ~ X z = D 8 ~ [ ) -.* : i z [ z.) d G ;.1.D * = * i 8 } [ p.l d z :.z l ",
"+.X 1 N +   6.z :.l r.2.j l ~ A i : + N p z 6   O   O h 1.1.A 2.b.8   ~ -.N 0 8.z f | R   + 7 a.N 8 ",
"X S D.l ~ N | u.4.m P = ~ N _ 1.-.q *.+ z 6 S r | t 8 * f | 6.%.f | X 1.u / ~ = I l ~ | v G 8 z p p ",
"[ z j F A 6 + A z 8.z v.8 _ i 8 X e   Y u ..* X.: :.l X z   R X & Y A 1 r.6 ;.: :.N 8 d n h h i f X ",
"o.%.n 4 ,.{ -.u.: 7 ~ -.: 8 : i s.{ _ = : 2 | 7 z ;.| S ~ ;.4 | 8.F.[ } z :.,.[ p.y l 8 * = * @.7.X ",
"r 8 R X S ! X p N m x i 8 g s.l h l F A l m J X k I 6 z ~ x X S T p 1 f f p b + U G X V J k 4.t m k ",
"R s k ! k p m e A f d *.4.S t ) G <.e N A x N 4.X <.p f t 4.c.R e f R i x i 4.x G z X G G I N e t i ",
"X N v @.8 t I X P P i } ~ z 8 1 } ;.d i p R n f : d ~ f s %.%.8 V 8 i S ~ e [ _ 8 N ..r.1.3.x z ..p ",
"6 R p U t h } = ~ y i i 8 8 p F f P u h } ~ | <.) ;.8 + p S n 8 V i | 1.l ~ + d G.4.8 t 4.u _ 8 *.* ",
"m R 1 R X } i t V K ; 2.n X I X *.A u 8 S i   p 7.J 1 i G   n i u i p A u   n n 1 F 1 i *.r u G p :.",
") / ~ : + X. .: : * t z 1.: 6.D 1.= : _ { -.X w i A ~ [ [ [ { * e.~ 6 X * A X ;.u o.8 4 w = ~ ,./ <.",
"! G A z a.A A : ) t.1.L F D X ~ z G R N u 6 [ H.S W U | ) f z G k p ;.f ;.8 t k N l i ~ I f x d _ } ",
"J W z   *.d | A ~ X   %.( N J.k X 4 F 6 ;.( ..{ z D V S p %.X I k i d | * 0 i X h S X *.X.I P t p.u ",
"| 6.n R X ;.d = x s.  O   ~ d ~ F n q.+.g X A f 2   : : ..N c 1.+ *.:.~ N i o y 1.q.P R ) 6.i & P A ",
"= + } | + l P X e *.l 8 : n N | ;.t.X   f N z ~ 6 i   V z   h.h l | 1 S 1.l ~ v p N = [ q p i h t A ",
"  X K d 6 X n h 8   k J i 3 | | i 8 s.+.S N   4 e f * + 6 i U ) + n i z $ f d %.%.p.p S : N p z i = ",
"1.d m.) X :.>.:.{  .y v :.h.8 p.* | K.* %.L.t.P.I.P ;.%.d - 1.A = %.> U.@ q   u.Y.= & : + v T.:.R.L.",
"E.8 G 8 i X r i 0 8 k | d e i A A 0 : z 8 ! I x 1 _ e c 8 t l h N i   m k X l G E.P X i h n 2.i m A ",
"A X ;.6 * : } 8 : 6 X P A t _ 6 z [ z #.d -.| ;.f S | u 8 _ z G A W.1 * ~ 8 p <.z.%.h : ;.d ) o.| 1.",
"$ p X T.1.d o.:.| v.i + P C + + X i : X } _ z z C f : + i h %.P P 6 p.* v ;.d } z 8 * ) 8 1.l.| l 4 ",
"e F m 1 N S R A D e X | ~ p N t t 8 p n V x i i | 8 ! i c.4.S m Y t D Q.N [ i N E.X G p D f i R f J ",
"_ / X [ 8 S } z _ 7 x } n z ~ o.%.f V J g ) ;.R P !.P %.1.= G N   8 d z.C 1 6 S i i ~.1.I   l + X 8 ",
"u p   + | z 1 } k = : V ~ |   i l   6 4 N A f   l } { P 8 S } N z ,.) ) l l 8 = X 0 = : b.: _ z m * ",
"~ I N T S l 6 i f <.P [ i ) 8 u c.R z 1.1.S F D ~ ^.R /.N A E.+ f ..m t D z ~ ) / N i k d _ d 1.p e ",
"i.t R R S k R p S 8 E.u c.X *.t ! <.n f 4.f 8 + N R y _ X J N m X k f c.7.S N x } X p 8 d 8 X e e N ",
"~ (._ p.z 8 I ~ ).r * q 8 * ;._ _.= G %.~ f p l ,.l 8 C %.`.6.1.P t u F 5.~ N.k q.u.X i.: ~ P G G s ",
"2.X D S   l 3   1.6 t.+ = + g X e B : l l :.~ h 9 + : w.~ 4.X   ~ z   ) l   V 0 + r w.I + l ..X z ;.",
"'.].[.{.}.|. X.XXX|.oX|.OX+X@X#X$X}.%X}.'.&X*X|.].*X=X-X;XOX:X>X,X}.<XoX1X|.,X.X-X@X@X}.+X&X].<X].2X"
};
