/* XPM */
static char *result[] = {
/* columns rows colors chars-per-pixel */
"50 50 48 1 ",
"  c #070809",
". c #0C0D0D",
"X c #0D0F10",
"o c #0F1112",
"O c #131415",
"+ c #141718",
"@ c #16191B",
"# c #191B1C",
"$ c #1A1F21",
"% c #1D2325",
"& c #1F2529",
"* c #1F282C",
"= c #212425",
"- c #212729",
"; c #232A2D",
": c #262E31",
"> c #282F32",
", c #263135",
"< c #2A3235",
"1 c #273339",
"2 c #2D3539",
"3 c #2F383C",
"4 c #303A3D",
"5 c #2E3C42",
"6 c #2F3F48",
"7 c #313D42",
"8 c #334146",
"9 c #34444B",
"0 c #38464C",
"q c #37484F",
"w c #39494F",
"e c #364752",
"r c #374952",
"t c #3A4C53",
"y c #3A4D5A",
"u c #3C5057",
"i c #3D535B",
"p c #3E5560",
"a c #40565E",
"s c #415760",
"d c #435A64",
"f c #455E68",
"g c #47616B",
"h c #48636D",
"j c #4A6671",
"k c #4D6A76",
"l c #4F6E7A",
"z c #52737F",
/* pixels */
"@#@@@++OOOoo...@+ooo...o$#@@++OooX..O&%%%#++Oo....",
"22<22<222<<<&oX,;;;;-=@+2;;;;;;;--#.+8444444323<&.",
"52<2<<<<<<>;-+X2;><,<22@72<2<<,<<,>o@3,>><<<22332O",
"6;;;;;;;;;;;;#o7:222232%8222322323<@#8&%%%%-*-;;;+",
"9;;*;;;;,,><<=ow<234433%t4443443373@@0-=%%&*--**-+",
"i9333333<222<;Oa832<222;g7444444333%#g2-%-*;;;;;;@",
"3iiiittq83332-O4auw083<:ljiw0744332*#kju0871,;;*;$",
"**&&&%%%%%%#O.OOOOOOOOOO7trqq987311%+38889888772<%",
"323<2222<22<=OO=#++Ooo.o+3<<<<,<>>;=.OOOOOOooooX..",
"5,<,<<>>>;;;=#@2;;;;;;$o@<;;;;-:;>>>#O###OOOoXX...",
"8;;;;;;;;;;;;=O2;<<<<22O#2;---;:;;;;$+2;;;-;;=&%@.",
"q;-;;;,,<<<22;O4;224243##7<<<<<<<<<<;#4<<>><><<::o",
"tdutw98844442>Oa2224444##w22322<2<<2>#8222<42222<@",
"*11<211,,<>;-=#at742222=#a2222222>>>>#a4444444443&",
",;&&&#@ooOO@@##<ww00732=#j222<<<>222>=a4444243333-",
"1;;,;,<;OoOOOOOOOOOOOOOO#za4222222222;faa84444444:",
"4><2222<%++++oooOoo.XX  @ggfaaaaa0088;8auutr98731;",
"9>244472*@+@@@@++@+++++ +####=#######>>;=-%%##@o..",
"s4<2<222,$@@@@@++#@+@@@X#$$$###O++OO#<>;;>;<<><>@.",
"hhaat9755*+@@@++++++@@@X$<;=====%%#O@<;;;;;;;;;;$.",
"O+O+$+@@,:+$@+++#+++@@@X=4><<<>>;>;;#2;;;;>;>>>;-X",
"OoooXoXX,5++@@++##@+@@#o=7<<222<222<%82<22<<<<2<>X",
":;=-$$$X,y:$@@++@@@@@@@o=02442444242-0222222<<2<<o",
"<;;::,1:*pye9663,:;,*%%@=a4444424423;u<<2<<<<<>>:o",
"<><2222<+@@@@@+@+######+=la444444444<g82242422222+",
"9<344442+&+OOOOOOooo....ojjhhaaa00882kkat07777755$",
"s22<2222+*+@@@@@++++O++o.=#########++;:<>::-;-=%$O",
"iptq8742@5@@@@@@+@#++@#+o2<<<>>>>;>;=#o+$#++ooXX..",
"@#@+@O+OO9@+@++++++++##+.7222<<22<<<:=O+>--:;==#..",
":---&%$OXe%+@+++@@++++++.8><>>;>:;;>;=#+2:::><2>o.",
"<;>>,,<:oy*@+@+@@#@@+##O.a===;;;;;;>><$+7:222242+.",
"3,<22222+i9*%@@@@@@@#+#O.a<;>><<<2222<=+q>242444#.",
"9,333444+tatq6672,<>;&%#+ggaauwq883443-Oa8222222$.",
"i32<2232#+##$$$$###+@+++%---=%%###@@$$#O0aat083<$.",
"ugiyq832$OOO2:;;;;;=-%#.3;;;;;;;;-&oO#OO@OOOooo.XX",
"+%##@@@+OooO2><<><<<>>>@8<<2<<<<<,,+=;--====%%%#oX",
"2;;;;;----$.5<222222232%q3222232222%<222222222<<*X",
"5,<<><>>:::#64242444333-u3444444443;<<>,<:<:>:::*$",
"9<232222222#t4444443333<p8444444434<2,;;;;;;;;;;;$",
"r3333444444;afa98744434<gkaw084444428,;;;;::<<<<1*",
"a8444242422:7sssatw0074<,88887323,1:rdqq047322225,",
"djt97777447<+OOOOOOOO=2<,,,>*;*%+.+o$,,,><:;*&%%$@",
"<qq9985342<>+OOOOOOOO-::;>;;;>>>;X&++o+oooooXXX.  ",
"+o.O.OXX;4222>;;-%%#.*:-;;;;;;;;;+*@@@@@+++@+++++ ",
":&&--%$o:44444443443%;<:;>>>>>>>,$1@@@@@++@@@+@@@.",
"2;::>><:::--;=;;:<<<;,32222<2<2<<*8$@+@+++@@++@@+.",
"3;2222221:%%=$=;-;;-%58223222<<<,*8&@@+++@@@++@@+ ",
"9<42247256-%%==;--**&5w<<<<<<<<<,*9,@+@++@@@@+@$@X",
"p72222328g1;;,;;;;;*;8j8222322223<er:%$@+@$++@+@@X",
"igauq8335lkjggirq98329zkggiiuuw088qiyye9955,11**$+"
};
